<svg width="114" height="44" viewBox="0 0 114 44" fill="none" xmlns="http://www.w3.org/2000/svg">
<g filter="url(#filter0_d_101_4)">
<mask id="path-1-inside-1_101_4" fill="white">
<path d="M20.9121 25.5586L21.5352 24.0117H26.8203L27.4434 25.5586H20.9121ZM19.709 28.6523L20.3105 27.1055H28.0234L28.6895 28.6523H19.709ZM18.5059 31.7461L19.1074 30.1992H29.248L29.8926 31.7461H18.5059ZM5.9375 36H4.26172L18.334 0.421875H20.0098L34.0605 36H32.4062L19.1719 2.50586L5.9375 36ZM19.3652 6.17969L20.2461 8.15625L9.24609 36H7.5918L19.3652 6.17969ZM21.084 10.2617L21.9004 12.3887L12.5977 36H10.9219L21.084 10.2617ZM22.7168 14.5156L23.5332 16.6855L15.9062 36H14.252L22.7168 14.5156ZM44.0508 36H42.375L28.3242 0.421875H29.9785L44.0508 36ZM26.6484 0.421875L40.7207 36H39.0664L24.9941 0.421875H26.6484ZM23.3184 0.421875L37.3906 36H35.7148L21.6641 0.421875H23.3184ZM56.0391 0.421875H57.5859V36H56.0391V0.421875ZM52.9453 0.421875H54.4922V36H52.9453V0.421875ZM49.8516 0.421875H51.3984V36H49.8516V0.421875ZM46.7578 0.421875H48.3047V36H46.7578V0.421875ZM61.4102 29.8125V28.2656H69.1445V29.8125H61.4102ZM61.4102 32.9062V31.3594H69.1445V32.9062H61.4102ZM61.4102 36V34.4531H69.1445V36H61.4102ZM98.5352 23.0234L100.082 20.1016V36H98.5352V23.0234ZM101.629 17.0938L103.176 14.1719V36H101.629V17.0938ZM104.723 11.25L106.27 8.30664V36H104.723V11.25ZM94.3457 22.293L93.4648 20.6816L104.121 0.421875H105.861L94.3457 22.293ZM92.5625 18.9199L91.6602 17.2871L100.598 0.421875H102.359L92.5625 18.9199ZM82.207 20.2734L83.7539 23.1953V36H82.207V20.2734ZM79.1133 14.3867L80.6602 17.3086V36H79.1133V14.3867ZM76.0195 8.5L77.5664 11.4434V36H76.0195V8.5ZM88.5234 26.7188H86.7832L74.4727 3.36523V36H72.9258V0.421875H74.666L88.5234 26.7188ZM92.0254 26.7188H90.2637L76.4277 0.421875H78.1895L92.0254 26.7188ZM107.816 3.36523L95.5059 26.7188H93.7441L79.9297 0.421875H81.6699L94.6465 25.0859L107.602 0.421875H109.363V36H107.816V3.36523Z"/>
</mask>
<path d="M20.9121 25.5586L21.5352 24.0117H26.8203L27.4434 25.5586H20.9121ZM19.709 28.6523L20.3105 27.1055H28.0234L28.6895 28.6523H19.709ZM18.5059 31.7461L19.1074 30.1992H29.248L29.8926 31.7461H18.5059ZM5.9375 36H4.26172L18.334 0.421875H20.0098L34.0605 36H32.4062L19.1719 2.50586L5.9375 36ZM19.3652 6.17969L20.2461 8.15625L9.24609 36H7.5918L19.3652 6.17969ZM21.084 10.2617L21.9004 12.3887L12.5977 36H10.9219L21.084 10.2617ZM22.7168 14.5156L23.5332 16.6855L15.9062 36H14.252L22.7168 14.5156ZM44.0508 36H42.375L28.3242 0.421875H29.9785L44.0508 36ZM26.6484 0.421875L40.7207 36H39.0664L24.9941 0.421875H26.6484ZM23.3184 0.421875L37.3906 36H35.7148L21.6641 0.421875H23.3184ZM56.0391 0.421875H57.5859V36H56.0391V0.421875ZM52.9453 0.421875H54.4922V36H52.9453V0.421875ZM49.8516 0.421875H51.3984V36H49.8516V0.421875ZM46.7578 0.421875H48.3047V36H46.7578V0.421875ZM61.4102 29.8125V28.2656H69.1445V29.8125H61.4102ZM61.4102 32.9062V31.3594H69.1445V32.9062H61.4102ZM61.4102 36V34.4531H69.1445V36H61.4102ZM98.5352 23.0234L100.082 20.1016V36H98.5352V23.0234ZM101.629 17.0938L103.176 14.1719V36H101.629V17.0938ZM104.723 11.25L106.27 8.30664V36H104.723V11.25ZM94.3457 22.293L93.4648 20.6816L104.121 0.421875H105.861L94.3457 22.293ZM92.5625 18.9199L91.6602 17.2871L100.598 0.421875H102.359L92.5625 18.9199ZM82.207 20.2734L83.7539 23.1953V36H82.207V20.2734ZM79.1133 14.3867L80.6602 17.3086V36H79.1133V14.3867ZM76.0195 8.5L77.5664 11.4434V36H76.0195V8.5ZM88.5234 26.7188H86.7832L74.4727 3.36523V36H72.9258V0.421875H74.666L88.5234 26.7188ZM92.0254 26.7188H90.2637L76.4277 0.421875H78.1895L92.0254 26.7188ZM107.816 3.36523L95.5059 26.7188H93.7441L79.9297 0.421875H81.6699L94.6465 25.0859L107.602 0.421875H109.363V36H107.816V3.36523Z" fill="#EDDDD4"/>
<path d="M20.9121 25.5586L19.9845 25.185L19.4313 26.5586H20.9121V25.5586ZM21.5352 24.0117V23.0117H20.8599L20.6076 23.6381L21.5352 24.0117ZM26.8203 24.0117L27.7479 23.6381L27.4956 23.0117H26.8203V24.0117ZM27.4434 25.5586V26.5586H28.9242L28.3709 25.185L27.4434 25.5586ZM19.709 28.6523L18.777 28.2899L18.2471 29.6523H19.709V28.6523ZM20.3105 27.1055V26.1055H19.6265L19.3785 26.743L20.3105 27.1055ZM28.0234 27.1055L28.9419 26.71L28.6816 26.1055H28.0234V27.1055ZM28.6895 28.6523V29.6523H30.2088L29.6079 28.2569L28.6895 28.6523ZM18.5059 31.7461L17.5739 31.3836L17.044 32.7461H18.5059V31.7461ZM19.1074 30.1992V29.1992H18.4234L18.1754 29.8368L19.1074 30.1992ZM29.248 30.1992L30.1711 29.8146L29.9147 29.1992H29.248V30.1992ZM29.8926 31.7461V32.7461H31.3926L30.8157 31.3615L29.8926 31.7461ZM5.9375 36V37H6.61761L6.86753 36.3675L5.9375 36ZM4.26172 36L3.33182 35.6322L2.79081 37H4.26172V36ZM18.334 0.421875V-0.578125H17.6541L17.4041 0.0540693L18.334 0.421875ZM20.0098 0.421875L20.9399 0.054555L20.69 -0.578125H20.0098V0.421875ZM34.0605 36V37H35.5306L34.9906 35.6327L34.0605 36ZM32.4062 36L31.4762 36.3675L31.7261 37H32.4062V36ZM19.1719 2.50586L20.1019 2.13838L19.1719 -0.215385L18.2418 2.13838L19.1719 2.50586ZM19.3652 6.17969L20.2786 5.77263L19.3095 3.59787L18.4351 5.81246L19.3652 6.17969ZM20.2461 8.15625L21.1761 8.52368L21.3305 8.13294L21.1595 7.74919L20.2461 8.15625ZM9.24609 36V37H9.92624L10.1761 36.3674L9.24609 36ZM7.5918 36L6.66167 35.6328L6.12187 37H7.5918V36ZM21.084 10.2617L22.0176 9.90337L21.0971 7.50538L20.1539 9.89448L21.084 10.2617ZM21.9004 12.3887L22.8308 12.7552L22.9733 12.3934L22.834 12.0303L21.9004 12.3887ZM12.5977 36V37H13.2785L13.528 36.3666L12.5977 36ZM10.9219 36L9.99175 35.6328L9.45193 37H10.9219V36ZM22.7168 14.5156L23.6527 14.1635L22.7383 11.733L21.7864 14.1491L22.7168 14.5156ZM23.5332 16.6855L24.4633 17.0528L24.6049 16.6942L24.4692 16.3334L23.5332 16.6855ZM15.9062 36V37H16.5865L16.8364 36.3673L15.9062 36ZM14.252 36L13.3216 35.6334L12.7831 37H14.252V36ZM44.0508 36V37H45.5217L44.9807 35.6322L44.0508 36ZM42.375 36L41.4449 36.3673L41.6948 37H42.375V36ZM28.3242 0.421875V-0.578125H26.8541L27.3941 0.789195L28.3242 0.421875ZM29.9785 0.421875L30.9084 0.0540693L30.6584 -0.578125H29.9785V0.421875ZM26.6484 0.421875L27.5783 0.0540693L27.3283 -0.578125H26.6484V0.421875ZM40.7207 36V37H42.1916L41.6506 35.6322L40.7207 36ZM39.0664 36L38.1365 36.3678L38.3866 37H39.0664V36ZM24.9941 0.421875V-0.578125H23.5232L24.0642 0.789681L24.9941 0.421875ZM23.3184 0.421875L24.2483 0.0540693L23.9982 -0.578125H23.3184V0.421875ZM37.3906 36V37H38.8615L38.3205 35.6322L37.3906 36ZM35.7148 36L34.7847 36.3673L35.0346 37H35.7148V36ZM21.6641 0.421875V-0.578125H20.194L20.734 0.789195L21.6641 0.421875ZM21.8397 25.9322L22.4627 24.3853L20.6076 23.6381L19.9845 25.185L21.8397 25.9322ZM21.5352 25.0117H26.8203V23.0117H21.5352V25.0117ZM25.8927 24.3853L26.5158 25.9322L28.3709 25.185L27.7479 23.6381L25.8927 24.3853ZM27.4434 24.5586H20.9121V26.5586H27.4434V24.5586ZM20.641 29.0148L21.2426 27.4679L19.3785 26.743L18.777 28.2899L20.641 29.0148ZM20.3105 28.1055H28.0234V26.1055H20.3105V28.1055ZM27.105 27.5009L27.771 29.0478L29.6079 28.2569L28.9419 26.71L27.105 27.5009ZM28.6895 27.6523H19.709V29.6523H28.6895V27.6523ZM19.4379 32.1085L20.0394 30.5617L18.1754 29.8368L17.5739 31.3836L19.4379 32.1085ZM19.1074 31.1992H29.248V29.1992H19.1074V31.1992ZM28.325 30.5838L28.9695 32.1307L30.8157 31.3615L30.1711 29.8146L28.325 30.5838ZM29.8926 30.7461H18.5059V32.7461H29.8926V30.7461ZM5.9375 35H4.26172V37H5.9375V35ZM5.19162 36.3678L19.2639 0.789681L17.4041 0.0540693L3.33182 35.6322L5.19162 36.3678ZM18.334 1.42188H20.0098V-0.578125H18.334V1.42188ZM19.0797 0.789195L33.1305 36.3673L34.9906 35.6327L20.9399 0.054555L19.0797 0.789195ZM34.0605 35H32.4062V37H34.0605V35ZM33.3363 35.6325L20.1019 2.13838L18.2418 2.87334L31.4762 36.3675L33.3363 35.6325ZM18.2418 2.13838L5.00747 35.6325L6.86753 36.3675L20.1019 2.87334L18.2418 2.13838ZM18.4518 6.58675L19.3327 8.56331L21.1595 7.74919L20.2786 5.77263L18.4518 6.58675ZM19.316 7.78882L8.31604 35.6326L10.1761 36.3674L21.1761 8.52368L19.316 7.78882ZM9.24609 35H7.5918V37H9.24609V35ZM8.52193 36.3672L20.2954 6.54692L18.4351 5.81246L6.66167 35.6328L8.52193 36.3672ZM20.1504 10.6201L20.9668 12.747L22.834 12.0303L22.0176 9.90337L20.1504 10.6201ZM20.97 12.0221L11.6673 35.6334L13.528 36.3666L22.8308 12.7552L20.97 12.0221ZM12.5977 35H10.9219V37H12.5977V35ZM11.852 36.3672L22.0141 10.629L20.1539 9.89448L9.99175 35.6328L11.852 36.3672ZM21.7808 14.8678L22.5973 17.0377L24.4692 16.3334L23.6527 14.1635L21.7808 14.8678ZM22.6031 16.3183L14.9761 35.6327L16.8364 36.3673L24.4633 17.0528L22.6031 16.3183ZM15.9062 35H14.252V37H15.9062V35ZM15.1823 36.3666L23.6472 14.8822L21.7864 14.1491L13.3216 35.6334L15.1823 36.3666ZM44.0508 35H42.375V37H44.0508V35ZM43.3051 35.6327L29.2543 0.054555L27.3941 0.789195L41.4449 36.3673L43.3051 35.6327ZM28.3242 1.42188H29.9785V-0.578125H28.3242V1.42188ZM29.0486 0.789681L43.1209 36.3678L44.9807 35.6322L30.9084 0.0540693L29.0486 0.789681ZM25.7185 0.789681L39.7908 36.3678L41.6506 35.6322L27.5783 0.0540693L25.7185 0.789681ZM40.7207 35H39.0664V37H40.7207V35ZM39.9963 35.6322L25.924 0.0540693L24.0642 0.789681L38.1365 36.3678L39.9963 35.6322ZM24.9941 1.42188H26.6484V-0.578125H24.9941V1.42188ZM22.3885 0.789681L36.4607 36.3678L38.3205 35.6322L24.2483 0.0540693L22.3885 0.789681ZM37.3906 35H35.7148V37H37.3906V35ZM36.6449 35.6327L22.5942 0.054555L20.734 0.789195L34.7847 36.3673L36.6449 35.6327ZM21.6641 1.42188H23.3184V-0.578125H21.6641V1.42188ZM56.0391 0.421875V-0.578125H55.0391V0.421875H56.0391ZM57.5859 0.421875H58.5859V-0.578125H57.5859V0.421875ZM57.5859 36V37H58.5859V36H57.5859ZM56.0391 36H55.0391V37H56.0391V36ZM52.9453 0.421875V-0.578125H51.9453V0.421875H52.9453ZM54.4922 0.421875H55.4922V-0.578125H54.4922V0.421875ZM54.4922 36V37H55.4922V36H54.4922ZM52.9453 36H51.9453V37H52.9453V36ZM49.8516 0.421875V-0.578125H48.8516V0.421875H49.8516ZM51.3984 0.421875H52.3984V-0.578125H51.3984V0.421875ZM51.3984 36V37H52.3984V36H51.3984ZM49.8516 36H48.8516V37H49.8516V36ZM46.7578 0.421875V-0.578125H45.7578V0.421875H46.7578ZM48.3047 0.421875H49.3047V-0.578125H48.3047V0.421875ZM48.3047 36V37H49.3047V36H48.3047ZM46.7578 36H45.7578V37H46.7578V36ZM56.0391 1.42188H57.5859V-0.578125H56.0391V1.42188ZM56.5859 0.421875V36H58.5859V0.421875H56.5859ZM57.5859 35H56.0391V37H57.5859V35ZM57.0391 36V0.421875H55.0391V36H57.0391ZM52.9453 1.42188H54.4922V-0.578125H52.9453V1.42188ZM53.4922 0.421875V36H55.4922V0.421875H53.4922ZM54.4922 35H52.9453V37H54.4922V35ZM53.9453 36V0.421875H51.9453V36H53.9453ZM49.8516 1.42188H51.3984V-0.578125H49.8516V1.42188ZM50.3984 0.421875V36H52.3984V0.421875H50.3984ZM51.3984 35H49.8516V37H51.3984V35ZM50.8516 36V0.421875H48.8516V36H50.8516ZM46.7578 1.42188H48.3047V-0.578125H46.7578V1.42188ZM47.3047 0.421875V36H49.3047V0.421875H47.3047ZM48.3047 35H46.7578V37H48.3047V35ZM47.7578 36V0.421875H45.7578V36H47.7578ZM61.4102 29.8125H60.4102V30.8125H61.4102V29.8125ZM61.4102 28.2656V27.2656H60.4102V28.2656H61.4102ZM69.1445 28.2656H70.1445V27.2656H69.1445V28.2656ZM69.1445 29.8125V30.8125H70.1445V29.8125H69.1445ZM61.4102 32.9062H60.4102V33.9062H61.4102V32.9062ZM61.4102 31.3594V30.3594H60.4102V31.3594H61.4102ZM69.1445 31.3594H70.1445V30.3594H69.1445V31.3594ZM69.1445 32.9062V33.9062H70.1445V32.9062H69.1445ZM61.4102 36H60.4102V37H61.4102V36ZM61.4102 34.4531V33.4531H60.4102V34.4531H61.4102ZM69.1445 34.4531H70.1445V33.4531H69.1445V34.4531ZM69.1445 36V37H70.1445V36H69.1445ZM62.4102 29.8125V28.2656H60.4102V29.8125H62.4102ZM61.4102 29.2656H69.1445V27.2656H61.4102V29.2656ZM68.1445 28.2656V29.8125H70.1445V28.2656H68.1445ZM69.1445 28.8125H61.4102V30.8125H69.1445V28.8125ZM62.4102 32.9062V31.3594H60.4102V32.9062H62.4102ZM61.4102 32.3594H69.1445V30.3594H61.4102V32.3594ZM68.1445 31.3594V32.9062H70.1445V31.3594H68.1445ZM69.1445 31.9062H61.4102V33.9062H69.1445V31.9062ZM62.4102 36V34.4531H60.4102V36H62.4102ZM61.4102 35.4531H69.1445V33.4531H61.4102V35.4531ZM68.1445 34.4531V36H70.1445V34.4531H68.1445ZM69.1445 35H61.4102V37H69.1445V35ZM98.5352 23.0234L97.6514 22.5555L97.5352 22.7751V23.0234H98.5352ZM100.082 20.1016H101.082L99.1982 19.6337L100.082 20.1016ZM100.082 36V37H101.082V36H100.082ZM98.5352 36H97.5352V37H98.5352V36ZM101.629 17.0938L100.745 16.6259L100.629 16.8454V17.0938H101.629ZM103.176 14.1719H104.176L102.292 13.704L103.176 14.1719ZM103.176 36V37H104.176V36H103.176ZM101.629 36H100.629V37H101.629V36ZM104.723 11.25L103.837 10.7848L103.723 11.0032V11.25H104.723ZM106.27 8.30664H107.27L105.384 7.84143L106.27 8.30664ZM106.27 36V37H107.27V36H106.27ZM104.723 36H103.723V37H104.723V36ZM94.3457 22.293L93.4683 22.7726L94.3622 24.408L95.2305 22.7589L94.3457 22.293ZM93.4648 20.6816L92.5798 20.2161L92.3302 20.6908L92.5874 21.1613L93.4648 20.6816ZM104.121 0.421875V-0.578125H103.517L103.236 -0.0436393L104.121 0.421875ZM105.861 0.421875L106.746 0.887765L107.518 -0.578125H105.861V0.421875ZM92.5625 18.9199L91.6873 19.4036L92.5812 21.0212L93.4462 19.388L92.5625 18.9199ZM91.6602 17.2871L90.7766 16.8189L90.5231 17.2971L90.7849 17.7708L91.6602 17.2871ZM100.598 0.421875V-0.578125H99.9959L99.7141 -0.0463747L100.598 0.421875ZM102.359 0.421875L103.243 0.889904L104.021 -0.578125H102.359V0.421875ZM82.207 20.2734L83.0908 19.8055L81.207 20.2734H82.207ZM83.7539 23.1953H84.7539V22.9469L84.6377 22.7274L83.7539 23.1953ZM83.7539 36V37H84.7539V36H83.7539ZM82.207 36H81.207V37H82.207V36ZM79.1133 14.3867L79.9971 13.9188L78.1133 14.3867H79.1133ZM80.6602 17.3086H81.6602V17.0602L81.5439 16.8407L80.6602 17.3086ZM80.6602 36V37H81.6602V36H80.6602ZM79.1133 36H78.1133V37H79.1133V36ZM76.0195 8.5L76.9047 8.03479L75.0195 8.5H76.0195ZM77.5664 11.4434H78.5664V11.1966L78.4516 10.9781L77.5664 11.4434ZM77.5664 36V37H78.5664V36H77.5664ZM76.0195 36H75.0195V37H76.0195V36ZM88.5234 26.7188V27.7188H90.1807L89.4081 26.2526L88.5234 26.7188ZM86.7832 26.7188L85.8986 27.1851L86.1799 27.7188H86.7832V26.7188ZM74.4727 3.36523L75.3573 2.89892L73.4727 3.36523H74.4727ZM74.4727 36V37H75.4727V36H74.4727ZM72.9258 36H71.9258V37H72.9258V36ZM72.9258 0.421875V-0.578125H71.9258V0.421875H72.9258ZM74.666 0.421875L75.5507 -0.0443182L75.2694 -0.578125H74.666V0.421875ZM92.0254 26.7188V27.7188H93.6815L92.9104 26.2531L92.0254 26.7188ZM90.2637 26.7188L89.3787 27.1844L89.6598 27.7188H90.2637V26.7188ZM76.4277 0.421875V-0.578125H74.7716L75.5428 0.887502L76.4277 0.421875ZM78.1895 0.421875L79.0744 -0.0437522L78.7933 -0.578125H78.1895V0.421875ZM107.816 3.36523H108.816L106.932 2.89892L107.816 3.36523ZM95.5059 26.7188V27.7188H96.1092L96.3905 27.1851L95.5059 26.7188ZM93.7441 26.7188L92.8589 27.1838L93.1399 27.7188H93.7441V26.7188ZM79.9297 0.421875V-0.578125H78.2748L79.0444 0.886936L79.9297 0.421875ZM81.6699 0.421875L82.5549 -0.0437443L82.2738 -0.578125H81.6699V0.421875ZM94.6465 25.0859L93.7615 25.5516L94.6472 27.235L95.5318 25.551L94.6465 25.0859ZM107.602 0.421875V-0.578125H106.997L106.716 -0.0431403L107.602 0.421875ZM109.363 0.421875H110.363V-0.578125H109.363V0.421875ZM109.363 36V37H110.363V36H109.363ZM107.816 36H106.816V37H107.816V36ZM99.4189 23.4913L100.966 20.5695L99.1982 19.6337L97.6514 22.5555L99.4189 23.4913ZM99.082 20.1016V36H101.082V20.1016H99.082ZM100.082 35H98.5352V37H100.082V35ZM99.5352 36V23.0234H97.5352V36H99.5352ZM102.513 17.5616L104.06 14.6398L102.292 13.704L100.745 16.6259L102.513 17.5616ZM102.176 14.1719V36H104.176V14.1719H102.176ZM103.176 35H101.629V37H103.176V35ZM102.629 36V17.0938H100.629V36H102.629ZM105.608 11.7152L107.155 8.77185L105.384 7.84143L103.837 10.7848L105.608 11.7152ZM105.27 8.30664V36H107.27V8.30664H105.27ZM106.27 35H104.723V37H106.27V35ZM105.723 36V11.25H103.723V36H105.723ZM95.2232 21.8133L94.3423 20.202L92.5874 21.1613L93.4683 22.7726L95.2232 21.8133ZM94.3499 21.1472L105.006 0.887389L103.236 -0.0436393L92.5798 20.2161L94.3499 21.1472ZM104.121 1.42188H105.861V-0.578125H104.121V1.42188ZM104.976 -0.0440147L93.4609 21.8271L95.2305 22.7589L106.746 0.887765L104.976 -0.0440147ZM93.4377 18.4362L92.5354 16.8034L90.7849 17.7708L91.6873 19.4036L93.4377 18.4362ZM92.5438 17.7554L101.481 0.890125L99.7141 -0.0463747L90.7766 16.8189L92.5438 17.7554ZM100.598 1.42188H102.359V-0.578125H100.598V1.42188ZM101.476 -0.0461542L91.6788 18.4519L93.4462 19.388L103.243 0.889904L101.476 -0.0461542ZM81.3232 20.7413L82.8701 23.6632L84.6377 22.7274L83.0908 19.8055L81.3232 20.7413ZM82.7539 23.1953V36H84.7539V23.1953H82.7539ZM83.7539 35H82.207V37H83.7539V35ZM83.207 36V20.2734H81.207V36H83.207ZM78.2295 14.8546L79.7764 17.7765L81.5439 16.8407L79.9971 13.9188L78.2295 14.8546ZM79.6602 17.3086V36H81.6602V17.3086H79.6602ZM80.6602 35H79.1133V37H80.6602V35ZM80.1133 36V14.3867H78.1133V36H80.1133ZM75.1343 8.96521L76.6812 11.9086L78.4516 10.9781L76.9047 8.03479L75.1343 8.96521ZM76.5664 11.4434V36H78.5664V11.4434H76.5664ZM77.5664 35H76.0195V37H77.5664V35ZM77.0195 36V8.5H75.0195V36H77.0195ZM88.5234 25.7188H86.7832V27.7188H88.5234V25.7188ZM87.6678 26.2524L75.3573 2.89892L73.588 3.83155L85.8986 27.1851L87.6678 26.2524ZM73.4727 3.36523V36H75.4727V3.36523H73.4727ZM74.4727 35H72.9258V37H74.4727V35ZM73.9258 36V0.421875H71.9258V36H73.9258ZM72.9258 1.42188H74.666V-0.578125H72.9258V1.42188ZM73.7813 0.888068L87.6388 27.1849L89.4081 26.2526L75.5507 -0.0443182L73.7813 0.888068ZM92.0254 25.7188H90.2637V27.7188H92.0254V25.7188ZM91.1487 26.2531L77.3127 -0.0437522L75.5428 0.887502L89.3787 27.1844L91.1487 26.2531ZM76.4277 1.42188H78.1895V-0.578125H76.4277V1.42188ZM77.3045 0.887502L91.1404 27.1844L92.9104 26.2531L79.0744 -0.0437522L77.3045 0.887502ZM106.932 2.89892L94.6212 26.2524L96.3905 27.1851L108.701 3.83155L106.932 2.89892ZM95.5059 25.7188H93.7441V27.7188H95.5059V25.7188ZM94.6294 26.2537L80.815 -0.0431857L79.0444 0.886936L92.8589 27.1838L94.6294 26.2537ZM79.9297 1.42188H81.6699V-0.578125H79.9297V1.42188ZM80.7849 0.887494L93.7615 25.5516L95.5315 24.6203L82.5549 -0.0437443L80.7849 0.887494ZM95.5318 25.551L108.487 0.88689L106.716 -0.0431403L93.7612 24.6209L95.5318 25.551ZM107.602 1.42188H109.363V-0.578125H107.602V1.42188ZM108.363 0.421875V36H110.363V0.421875H108.363ZM109.363 35H107.816V37H109.363V35ZM108.816 36V3.36523H106.816V36H108.816Z" fill="#EDDDD4" mask="url(#path-1-inside-1_101_4)"/>
</g>
<defs>
<filter id="filter0_d_101_4" x="0.261719" y="0.421875" width="113.102" height="43.5781" filterUnits="userSpaceOnUse" color-interpolation-filters="sRGB">
<feFlood flood-opacity="0" result="BackgroundImageFix"/>
<feColorMatrix in="SourceAlpha" type="matrix" values="0 0 0 0 0 0 0 0 0 0 0 0 0 0 0 0 0 0 127 0" result="hardAlpha"/>
<feOffset dy="4"/>
<feGaussianBlur stdDeviation="2"/>
<feComposite in2="hardAlpha" operator="out"/>
<feColorMatrix type="matrix" values="0 0 0 0 0 0 0 0 0 0 0 0 0 0 0 0 0 0 0.25 0"/>
<feBlend mode="normal" in2="BackgroundImageFix" result="effect1_dropShadow_101_4"/>
<feBlend mode="normal" in="SourceGraphic" in2="effect1_dropShadow_101_4" result="shape"/>
</filter>
</defs>
</svg>
