<svg width="77" height="41" viewBox="0 0 77 41" fill="none" xmlns="http://www.w3.org/2000/svg">
<g filter="url(#filter0_d_101_4)">
<mask id="path-1-inside-1_101_4" fill="white">
<path d="M35.6641 0.0625H37.2109V31H35.6641V0.0625ZM4.70508 0.0625H6.25195V31H4.70508V0.0625ZM32.5703 0.0625H34.1172V31H32.5703V0.0625ZM29.4766 0.0625H31.0234V31H29.4766V0.0625ZM26.3828 0.0625H27.9297V31H26.3828V18.625H15.5332V31H13.9863V0.0625H15.5332V10.8906H26.3828V0.0625ZM10.8926 0.0625H12.4395V31H10.8926V0.0625ZM7.79883 0.0625H9.3457V31H7.79883V0.0625ZM26.3828 17.0781V15.5312H15.5332V17.0781H26.3828ZM26.3828 13.9844V12.4375H15.5332V13.9844H26.3828ZM61.5742 17.293V0.0625H63.1211V17.293C63.1211 18.9258 62.4909 20.3294 61.2305 21.5039C59.9844 22.6784 58.4805 23.2656 56.7188 23.2656C54.957 23.2656 53.446 22.6784 52.1855 21.5039C50.9395 20.3294 50.3164 18.9258 50.3164 17.293V0.0625H51.8633V17.293C51.8633 18.5104 52.3359 19.556 53.2812 20.4297C54.2409 21.2891 55.3867 21.7188 56.7188 21.7188C58.0508 21.7188 59.1895 21.2891 60.1348 20.4297C61.0944 19.556 61.5742 18.5104 61.5742 17.293ZM64.668 17.293V0.0625H66.2148V17.293C66.2148 19.7995 65.2839 21.9408 63.4219 23.7168C61.5599 25.4785 59.3255 26.3594 56.7188 26.3594C54.112 26.3594 51.8776 25.4785 50.0156 23.7168C48.1536 21.9408 47.2227 19.7995 47.2227 17.293V0.0625H48.7695V17.293C48.7695 19.3698 49.543 21.1458 51.0898 22.6211C52.651 24.082 54.5273 24.8125 56.7188 24.8125C58.8958 24.8125 60.765 24.082 62.3262 22.6211C63.8874 21.1458 64.668 19.3698 64.668 17.293ZM67.7617 17.293V0.0625H69.3086V17.293C69.3086 19.4844 68.7428 21.5182 67.6113 23.3945C66.4798 25.2565 64.9473 26.7318 63.0137 27.8203C61.0801 28.9089 58.9818 29.4531 56.7188 29.4531C54.4557 29.4531 52.3574 28.9089 50.4238 27.8203C48.4902 26.7318 46.9577 25.2565 45.8262 23.3945C44.6947 21.5182 44.1289 19.4844 44.1289 17.293V0.0625H45.6758V17.293C45.6758 19.1979 46.1699 20.9668 47.1582 22.5996C48.1465 24.2324 49.4857 25.5286 51.1758 26.4883C52.8802 27.4336 54.7279 27.9062 56.7188 27.9062C58.7096 27.9062 60.5501 27.4336 62.2402 26.4883C63.9447 25.5286 65.291 24.2324 66.2793 22.5996C67.2676 20.9668 67.7617 19.1979 67.7617 17.293ZM70.8555 17.293V0.0625H72.4023V17.293C72.4023 19.3555 71.987 21.332 71.1562 23.2227C70.3255 25.099 69.2083 26.7174 67.8047 28.0781C66.401 29.4388 64.7324 30.5202 62.7988 31.3223C60.8652 32.1387 58.8385 32.5469 56.7188 32.5469C54.599 32.5469 52.5723 32.1387 50.6387 31.3223C48.7051 30.5202 47.0365 29.4388 45.6328 28.0781C44.2292 26.7174 43.112 25.099 42.2812 23.2227C41.4505 21.332 41.0352 19.3555 41.0352 17.293V0.0625H42.582V17.293C42.582 19.7565 43.2122 22.041 44.4727 24.1465C45.7474 26.252 47.4661 27.9206 49.6289 29.1523C51.806 30.3841 54.1693 31 56.7188 31C59.2682 31 61.6243 30.3841 63.7871 29.1523C65.9642 27.9206 67.6829 26.252 68.9434 24.1465C70.2181 22.041 70.8555 19.7565 70.8555 17.293Z"/>
</mask>
<path d="M35.6641 0.0625H37.2109V31H35.6641V0.0625ZM4.70508 0.0625H6.25195V31H4.70508V0.0625ZM32.5703 0.0625H34.1172V31H32.5703V0.0625ZM29.4766 0.0625H31.0234V31H29.4766V0.0625ZM26.3828 0.0625H27.9297V31H26.3828V18.625H15.5332V31H13.9863V0.0625H15.5332V10.8906H26.3828V0.0625ZM10.8926 0.0625H12.4395V31H10.8926V0.0625ZM7.79883 0.0625H9.3457V31H7.79883V0.0625ZM26.3828 17.0781V15.5312H15.5332V17.0781H26.3828ZM26.3828 13.9844V12.4375H15.5332V13.9844H26.3828ZM61.5742 17.293V0.0625H63.1211V17.293C63.1211 18.9258 62.4909 20.3294 61.2305 21.5039C59.9844 22.6784 58.4805 23.2656 56.7188 23.2656C54.957 23.2656 53.446 22.6784 52.1855 21.5039C50.9395 20.3294 50.3164 18.9258 50.3164 17.293V0.0625H51.8633V17.293C51.8633 18.5104 52.3359 19.556 53.2812 20.4297C54.2409 21.2891 55.3867 21.7188 56.7188 21.7188C58.0508 21.7188 59.1895 21.2891 60.1348 20.4297C61.0944 19.556 61.5742 18.5104 61.5742 17.293ZM64.668 17.293V0.0625H66.2148V17.293C66.2148 19.7995 65.2839 21.9408 63.4219 23.7168C61.5599 25.4785 59.3255 26.3594 56.7188 26.3594C54.112 26.3594 51.8776 25.4785 50.0156 23.7168C48.1536 21.9408 47.2227 19.7995 47.2227 17.293V0.0625H48.7695V17.293C48.7695 19.3698 49.543 21.1458 51.0898 22.6211C52.651 24.082 54.5273 24.8125 56.7188 24.8125C58.8958 24.8125 60.765 24.082 62.3262 22.6211C63.8874 21.1458 64.668 19.3698 64.668 17.293ZM67.7617 17.293V0.0625H69.3086V17.293C69.3086 19.4844 68.7428 21.5182 67.6113 23.3945C66.4798 25.2565 64.9473 26.7318 63.0137 27.8203C61.0801 28.9089 58.9818 29.4531 56.7188 29.4531C54.4557 29.4531 52.3574 28.9089 50.4238 27.8203C48.4902 26.7318 46.9577 25.2565 45.8262 23.3945C44.6947 21.5182 44.1289 19.4844 44.1289 17.293V0.0625H45.6758V17.293C45.6758 19.1979 46.1699 20.9668 47.1582 22.5996C48.1465 24.2324 49.4857 25.5286 51.1758 26.4883C52.8802 27.4336 54.7279 27.9062 56.7188 27.9062C58.7096 27.9062 60.5501 27.4336 62.2402 26.4883C63.9447 25.5286 65.291 24.2324 66.2793 22.5996C67.2676 20.9668 67.7617 19.1979 67.7617 17.293ZM70.8555 17.293V0.0625H72.4023V17.293C72.4023 19.3555 71.987 21.332 71.1562 23.2227C70.3255 25.099 69.2083 26.7174 67.8047 28.0781C66.401 29.4388 64.7324 30.5202 62.7988 31.3223C60.8652 32.1387 58.8385 32.5469 56.7188 32.5469C54.599 32.5469 52.5723 32.1387 50.6387 31.3223C48.7051 30.5202 47.0365 29.4388 45.6328 28.0781C44.2292 26.7174 43.112 25.099 42.2812 23.2227C41.4505 21.332 41.0352 19.3555 41.0352 17.293V0.0625H42.582V17.293C42.582 19.7565 43.2122 22.041 44.4727 24.1465C45.7474 26.252 47.4661 27.9206 49.6289 29.1523C51.806 30.3841 54.1693 31 56.7188 31C59.2682 31 61.6243 30.3841 63.7871 29.1523C65.9642 27.9206 67.6829 26.252 68.9434 24.1465C70.2181 22.041 70.8555 19.7565 70.8555 17.293Z" fill="#EDDDD4"/>
<path d="M35.6641 0.0625V-0.9375H34.6641V0.0625H35.6641ZM37.2109 0.0625H38.2109V-0.9375H37.2109V0.0625ZM37.2109 31V32H38.2109V31H37.2109ZM35.6641 31H34.6641V32H35.6641V31ZM4.70508 0.0625V-0.9375H3.70508V0.0625H4.70508ZM6.25195 0.0625H7.25195V-0.9375H6.25195V0.0625ZM6.25195 31V32H7.25195V31H6.25195ZM4.70508 31H3.70508V32H4.70508V31ZM32.5703 0.0625V-0.9375H31.5703V0.0625H32.5703ZM34.1172 0.0625H35.1172V-0.9375H34.1172V0.0625ZM34.1172 31V32H35.1172V31H34.1172ZM32.5703 31H31.5703V32H32.5703V31ZM29.4766 0.0625V-0.9375H28.4766V0.0625H29.4766ZM31.0234 0.0625H32.0234V-0.9375H31.0234V0.0625ZM31.0234 31V32H32.0234V31H31.0234ZM29.4766 31H28.4766V32H29.4766V31ZM26.3828 0.0625V-0.9375H25.3828V0.0625H26.3828ZM27.9297 0.0625H28.9297V-0.9375H27.9297V0.0625ZM27.9297 31V32H28.9297V31H27.9297ZM26.3828 31H25.3828V32H26.3828V31ZM26.3828 18.625H27.3828V17.625H26.3828V18.625ZM15.5332 18.625V17.625H14.5332V18.625H15.5332ZM15.5332 31V32H16.5332V31H15.5332ZM13.9863 31H12.9863V32H13.9863V31ZM13.9863 0.0625V-0.9375H12.9863V0.0625H13.9863ZM15.5332 0.0625H16.5332V-0.9375H15.5332V0.0625ZM15.5332 10.8906H14.5332V11.8906H15.5332V10.8906ZM26.3828 10.8906V11.8906H27.3828V10.8906H26.3828ZM10.8926 0.0625V-0.9375H9.89258V0.0625H10.8926ZM12.4395 0.0625H13.4395V-0.9375H12.4395V0.0625ZM12.4395 31V32H13.4395V31H12.4395ZM10.8926 31H9.89258V32H10.8926V31ZM7.79883 0.0625V-0.9375H6.79883V0.0625H7.79883ZM9.3457 0.0625H10.3457V-0.9375H9.3457V0.0625ZM9.3457 31V32H10.3457V31H9.3457ZM7.79883 31H6.79883V32H7.79883V31ZM26.3828 17.0781V18.0781H27.3828V17.0781H26.3828ZM26.3828 15.5312H27.3828V14.5312H26.3828V15.5312ZM15.5332 15.5312V14.5312H14.5332V15.5312H15.5332ZM15.5332 17.0781H14.5332V18.0781H15.5332V17.0781ZM26.3828 13.9844V14.9844H27.3828V13.9844H26.3828ZM26.3828 12.4375H27.3828V11.4375H26.3828V12.4375ZM15.5332 12.4375V11.4375H14.5332V12.4375H15.5332ZM15.5332 13.9844H14.5332V14.9844H15.5332V13.9844ZM35.6641 1.0625H37.2109V-0.9375H35.6641V1.0625ZM36.2109 0.0625V31H38.2109V0.0625H36.2109ZM37.2109 30H35.6641V32H37.2109V30ZM36.6641 31V0.0625H34.6641V31H36.6641ZM4.70508 1.0625H6.25195V-0.9375H4.70508V1.0625ZM5.25195 0.0625V31H7.25195V0.0625H5.25195ZM6.25195 30H4.70508V32H6.25195V30ZM5.70508 31V0.0625H3.70508V31H5.70508ZM32.5703 1.0625H34.1172V-0.9375H32.5703V1.0625ZM33.1172 0.0625V31H35.1172V0.0625H33.1172ZM34.1172 30H32.5703V32H34.1172V30ZM33.5703 31V0.0625H31.5703V31H33.5703ZM29.4766 1.0625H31.0234V-0.9375H29.4766V1.0625ZM30.0234 0.0625V31H32.0234V0.0625H30.0234ZM31.0234 30H29.4766V32H31.0234V30ZM30.4766 31V0.0625H28.4766V31H30.4766ZM26.3828 1.0625H27.9297V-0.9375H26.3828V1.0625ZM26.9297 0.0625V31H28.9297V0.0625H26.9297ZM27.9297 30H26.3828V32H27.9297V30ZM27.3828 31V18.625H25.3828V31H27.3828ZM26.3828 17.625H15.5332V19.625H26.3828V17.625ZM14.5332 18.625V31H16.5332V18.625H14.5332ZM15.5332 30H13.9863V32H15.5332V30ZM14.9863 31V0.0625H12.9863V31H14.9863ZM13.9863 1.0625H15.5332V-0.9375H13.9863V1.0625ZM14.5332 0.0625V10.8906H16.5332V0.0625H14.5332ZM15.5332 11.8906H26.3828V9.89062H15.5332V11.8906ZM27.3828 10.8906V0.0625H25.3828V10.8906H27.3828ZM10.8926 1.0625H12.4395V-0.9375H10.8926V1.0625ZM11.4395 0.0625V31H13.4395V0.0625H11.4395ZM12.4395 30H10.8926V32H12.4395V30ZM11.8926 31V0.0625H9.89258V31H11.8926ZM7.79883 1.0625H9.3457V-0.9375H7.79883V1.0625ZM8.3457 0.0625V31H10.3457V0.0625H8.3457ZM9.3457 30H7.79883V32H9.3457V30ZM8.79883 31V0.0625H6.79883V31H8.79883ZM27.3828 17.0781V15.5312H25.3828V17.0781H27.3828ZM26.3828 14.5312H15.5332V16.5312H26.3828V14.5312ZM14.5332 15.5312V17.0781H16.5332V15.5312H14.5332ZM15.5332 18.0781H26.3828V16.0781H15.5332V18.0781ZM27.3828 13.9844V12.4375H25.3828V13.9844H27.3828ZM26.3828 11.4375H15.5332V13.4375H26.3828V11.4375ZM14.5332 12.4375V13.9844H16.5332V12.4375H14.5332ZM15.5332 14.9844H26.3828V12.9844H15.5332V14.9844ZM61.5742 0.0625V-0.9375H60.5742V0.0625H61.5742ZM63.1211 0.0625H64.1211V-0.9375H63.1211V0.0625ZM61.2305 21.5039L60.5487 20.7723L60.5446 20.7762L61.2305 21.5039ZM52.1855 21.5039L51.4996 22.2316L51.5038 22.2355L52.1855 21.5039ZM50.3164 0.0625V-0.9375H49.3164V0.0625H50.3164ZM51.8633 0.0625H52.8633V-0.9375H51.8633V0.0625ZM53.2812 20.4297L52.6025 21.1641L52.6083 21.1694L52.6141 21.1746L53.2812 20.4297ZM60.1348 20.4297L60.8074 21.1696L60.808 21.1691L60.1348 20.4297ZM64.668 0.0625V-0.9375H63.668V0.0625H64.668ZM66.2148 0.0625H67.2148V-0.9375H66.2148V0.0625ZM63.4219 23.7168L64.1092 24.4432L64.1121 24.4404L63.4219 23.7168ZM50.0156 23.7168L49.3254 24.4404L49.3283 24.4432L50.0156 23.7168ZM47.2227 0.0625V-0.9375H46.2227V0.0625H47.2227ZM48.7695 0.0625H49.7695V-0.9375H48.7695V0.0625ZM51.0898 22.6211L50.3997 23.3448L50.4066 23.3513L51.0898 22.6211ZM62.3262 22.6211L63.0095 23.3513L63.013 23.3479L62.3262 22.6211ZM67.7617 0.0625V-0.9375H66.7617V0.0625H67.7617ZM69.3086 0.0625H70.3086V-0.9375H69.3086V0.0625ZM67.6113 23.3945L68.4659 23.9139L68.4677 23.9109L67.6113 23.3945ZM63.0137 27.8203L62.5231 26.9489L63.0137 27.8203ZM45.8262 23.3945L44.9698 23.911L44.9716 23.9139L45.8262 23.3945ZM44.1289 0.0625V-0.9375H43.1289V0.0625H44.1289ZM45.6758 0.0625H46.6758V-0.9375H45.6758V0.0625ZM51.1758 26.4883L50.682 27.3579L50.6908 27.3628L51.1758 26.4883ZM62.2402 26.4883L62.7284 27.361L62.7308 27.3597L62.2402 26.4883ZM70.8555 0.0625V-0.9375H69.8555V0.0625H70.8555ZM72.4023 0.0625H73.4023V-0.9375H72.4023V0.0625ZM71.1562 23.2227L72.0706 23.6275L72.0718 23.6249L71.1562 23.2227ZM62.7988 31.3223L62.4157 30.3986L62.4099 30.401L62.7988 31.3223ZM50.6387 31.3223L51.0277 30.401L51.0218 30.3986L50.6387 31.3223ZM42.2812 23.2227L41.3657 23.6249L41.3669 23.6275L42.2812 23.2227ZM41.0352 0.0625V-0.9375H40.0352V0.0625H41.0352ZM42.582 0.0625H43.582V-0.9375H42.582V0.0625ZM44.4727 24.1465L43.6146 24.6601L43.6172 24.6644L44.4727 24.1465ZM49.6289 29.1523L49.134 30.0213L49.1365 30.0227L49.6289 29.1523ZM63.7871 29.1523L63.2947 28.282L63.2922 28.2834L63.7871 29.1523ZM68.9434 24.1465L68.0879 23.6286L68.0854 23.6328L68.9434 24.1465ZM62.5742 17.293V0.0625H60.5742V17.293H62.5742ZM61.5742 1.0625H63.1211V-0.9375H61.5742V1.0625ZM62.1211 0.0625V17.293H64.1211V0.0625H62.1211ZM62.1211 17.293C62.1211 18.6316 61.6187 19.7753 60.5487 20.7723L61.9122 22.2355C63.363 20.8836 64.1211 19.22 64.1211 17.293H62.1211ZM60.5446 20.7762C59.4899 21.7703 58.2336 22.2656 56.7188 22.2656V24.2656C58.7273 24.2656 60.4789 23.5865 61.9164 22.2316L60.5446 20.7762ZM56.7188 22.2656C55.2037 22.2656 53.938 21.77 52.8673 20.7723L51.5038 22.2355C52.9539 23.5867 54.7104 24.2656 56.7188 24.2656V22.2656ZM52.8714 20.7762C51.8148 19.7803 51.3164 18.6356 51.3164 17.293H49.3164C49.3164 19.216 50.0641 20.8785 51.4997 22.2316L52.8714 20.7762ZM51.3164 17.293V0.0625H49.3164V17.293H51.3164ZM50.3164 1.0625H51.8633V-0.9375H50.3164V1.0625ZM50.8633 0.0625V17.293H52.8633V0.0625H50.8633ZM50.8633 17.293C50.8633 18.8068 51.4656 20.1133 52.6025 21.1641L53.96 19.6953C53.2063 18.9987 52.8633 18.214 52.8633 17.293H50.8633ZM52.6141 21.1746C53.7639 22.2043 55.1497 22.7188 56.7188 22.7188V20.7188C55.6237 20.7188 54.7179 20.3738 53.9484 19.6847L52.6141 21.1746ZM56.7188 22.7188C58.2879 22.7188 59.6696 22.204 60.8074 21.1696L59.4621 19.6897C58.7093 20.3741 57.8137 20.7188 56.7188 20.7188V22.7188ZM60.808 21.1691C61.9603 20.12 62.5742 18.8121 62.5742 17.293H60.5742C60.5742 18.2087 60.2285 18.992 59.4615 19.6902L60.808 21.1691ZM65.668 17.293V0.0625H63.668V17.293H65.668ZM64.668 1.0625H66.2148V-0.9375H64.668V1.0625ZM65.2148 0.0625V17.293H67.2148V0.0625H65.2148ZM65.2148 17.293C65.2148 19.518 64.4017 21.4002 62.7317 22.9932L64.1121 24.4404C66.166 22.4813 67.2148 20.081 67.2148 17.293H65.2148ZM62.7346 22.9904C61.0618 24.5731 59.0747 25.3594 56.7188 25.3594V27.3594C59.5763 27.3594 62.058 26.3839 64.1092 24.4432L62.7346 22.9904ZM56.7188 25.3594C54.3628 25.3594 52.3757 24.5731 50.7029 22.9904L49.3283 24.4432C51.3795 26.3839 53.8612 27.3594 56.7188 27.3594V25.3594ZM50.7058 22.9932C49.0358 21.4002 48.2227 19.518 48.2227 17.293H46.2227C46.2227 20.081 47.2715 22.4813 49.3254 24.4404L50.7058 22.9932ZM48.2227 17.293V0.0625H46.2227V17.293H48.2227ZM47.2227 1.0625H48.7695V-0.9375H47.2227V1.0625ZM47.7695 0.0625V17.293H49.7695V0.0625H47.7695ZM47.7695 17.293C47.7695 19.6521 48.6615 21.687 50.3997 23.3448L51.78 21.8974C50.4245 20.6047 49.7695 19.0875 49.7695 17.293H47.7695ZM50.4066 23.3513C52.1581 24.9903 54.2806 25.8125 56.7188 25.8125V23.8125C54.7741 23.8125 53.144 23.1738 51.7731 21.8909L50.4066 23.3513ZM56.7188 25.8125C59.1444 25.8125 61.2593 24.989 63.0094 23.3513L61.6429 21.8909C60.2707 23.175 58.6472 23.8125 56.7188 23.8125V25.8125ZM63.013 23.3479C64.7664 21.6911 65.668 19.6553 65.668 17.293H63.668C63.668 19.0843 63.0084 20.6006 61.6394 21.8943L63.013 23.3479ZM68.7617 17.293V0.0625H66.7617V17.293H68.7617ZM67.7617 1.0625H69.3086V-0.9375H67.7617V1.0625ZM68.3086 0.0625V17.293H70.3086V0.0625H68.3086ZM68.3086 17.293C68.3086 19.3024 67.7925 21.1577 66.755 22.8781L68.4677 23.9109C69.6932 21.8788 70.3086 19.6664 70.3086 17.293H68.3086ZM66.7567 22.8752C65.7161 24.5877 64.31 25.9429 62.5231 26.9489L63.5042 28.6917C65.5845 27.5206 67.2436 25.9253 68.4659 23.9139L66.7567 22.8752ZM62.5231 26.9489C60.7423 27.9514 58.8135 28.4531 56.7188 28.4531V30.4531C59.1501 30.4531 61.4178 29.8663 63.5042 28.6917L62.5231 26.9489ZM56.7188 28.4531C54.624 28.4531 52.6952 27.9514 50.9144 26.9489L49.9333 28.6917C52.0197 29.8663 54.2874 30.4531 56.7188 30.4531V28.4531ZM50.9144 26.9489C49.1275 25.9429 47.7214 24.5877 46.6808 22.8752L44.9716 23.9139C46.1939 25.9253 47.853 27.5206 49.9333 28.6917L50.9144 26.9489ZM46.6825 22.8781C45.645 21.1577 45.1289 19.3024 45.1289 17.293H43.1289C43.1289 19.6664 43.7443 21.8788 44.9698 23.9109L46.6825 22.8781ZM45.1289 17.293V0.0625H43.1289V17.293H45.1289ZM44.1289 1.0625H45.6758V-0.9375H44.1289V1.0625ZM44.6758 0.0625V17.293H46.6758V0.0625H44.6758ZM44.6758 17.293C44.6758 19.3808 45.2201 21.3287 46.3027 23.1174L48.0137 22.0818C47.1198 20.6049 46.6758 19.015 46.6758 17.293H44.6758ZM46.3027 23.1174C47.3812 24.8993 48.8461 26.3154 50.682 27.3579L51.6695 25.6187C50.1253 24.7418 48.9118 23.5656 48.0137 22.0818L46.3027 23.1174ZM50.6908 27.3628C52.5469 28.3922 54.562 28.9062 56.7188 28.9062V26.9062C54.8938 26.9062 53.2135 26.475 51.6608 25.6138L50.6908 27.3628ZM56.7188 28.9062C58.8755 28.9062 60.8848 28.3922 62.7284 27.361L61.7521 25.6155C60.2155 26.475 58.5437 26.9062 56.7188 26.9062V28.9062ZM62.7308 27.3597C64.5814 26.3177 66.0551 24.9013 67.1348 23.1174L65.4238 22.0818C64.527 23.5635 63.3079 24.7396 61.7496 25.6169L62.7308 27.3597ZM67.1348 23.1174C68.2174 21.3287 68.7617 19.3808 68.7617 17.293H66.7617C66.7617 19.015 66.3177 20.6049 65.4238 22.0818L67.1348 23.1174ZM71.8555 17.293V0.0625H69.8555V17.293H71.8555ZM70.8555 1.0625H72.4023V-0.9375H70.8555V1.0625ZM71.4023 0.0625V17.293H73.4023V0.0625H71.4023ZM71.4023 17.293C71.4023 19.2168 71.0158 21.0564 70.2407 22.8204L72.0718 23.6249C72.9581 21.6077 73.4023 19.4941 73.4023 17.293H71.4023ZM70.2419 22.8178C69.4605 24.5826 68.4155 26.0932 67.1087 27.3601L68.5007 28.7961C70.0011 27.3417 71.1905 25.6153 72.0706 23.6275L70.2419 22.8178ZM67.1087 27.3601C65.8017 28.6271 64.2413 29.6413 62.4157 30.3986L63.182 32.2459C65.2236 31.3991 67.0004 30.2505 68.5007 28.7961L67.1087 27.3601ZM62.4099 30.401C60.6006 31.1649 58.7063 31.5469 56.7188 31.5469V33.5469C58.9708 33.5469 61.1299 33.1124 63.1878 32.2435L62.4099 30.401ZM56.7188 31.5469C54.7312 31.5469 52.8369 31.1649 51.0276 30.401L50.2497 32.2435C52.3076 33.1124 54.4667 33.5469 56.7188 33.5469V31.5469ZM51.0218 30.3986C49.1962 29.6413 47.6358 28.6271 46.3288 27.3601L44.9368 28.7961C46.4371 30.2505 48.2139 31.3991 50.2555 32.2459L51.0218 30.3986ZM46.3288 27.3601C45.022 26.0932 43.977 24.5826 43.1956 22.8178L41.3669 23.6275C42.247 25.6153 43.4364 27.3417 44.9368 28.7961L46.3288 27.3601ZM43.1968 22.8204C42.4217 21.0564 42.0352 19.2168 42.0352 17.293H40.0352C40.0352 19.4941 40.4794 21.6077 41.3657 23.6249L43.1968 22.8204ZM42.0352 17.293V0.0625H40.0352V17.293H42.0352ZM41.0352 1.0625H42.582V-0.9375H41.0352V1.0625ZM41.582 0.0625V17.293H43.582V0.0625H41.582ZM41.582 17.293C41.582 19.9367 42.2609 22.3988 43.6146 24.6601L45.3307 23.6328C44.1636 21.6832 43.582 19.5764 43.582 17.293H41.582ZM43.6172 24.6644C44.9813 26.9174 46.8249 28.7061 49.134 30.0213L50.1238 28.2834C48.1074 27.135 46.5135 25.5865 45.3281 23.6286L43.6172 24.6644ZM49.1365 30.0227C51.4668 31.3411 54.0002 32 56.7188 32V30C54.3384 30 52.1452 29.4271 50.1213 28.282L49.1365 30.0227ZM56.7188 32C59.4374 32 61.9647 31.3411 64.282 30.0213L63.2922 28.2834C61.284 29.4271 59.0991 30 56.7188 30V32ZM64.2795 30.0227C66.6043 28.7074 68.4502 26.9171 69.8014 24.6601L68.0854 23.6328C66.9156 25.5868 65.3241 27.1338 63.2947 28.282L64.2795 30.0227ZM69.7988 24.6644C71.1682 22.4026 71.8555 19.9389 71.8555 17.293H69.8555C69.8555 19.5741 69.268 21.6795 68.0879 23.6286L69.7988 24.6644Z" fill="#EDDDD4" mask="url(#path-1-inside-1_101_4)"/>
</g>
<defs>
<filter id="filter0_d_101_4" x="0.705078" y="0.0625" width="75.6973" height="40.4844" filterUnits="userSpaceOnUse" color-interpolation-filters="sRGB">
<feFlood flood-opacity="0" result="BackgroundImageFix"/>
<feColorMatrix in="SourceAlpha" type="matrix" values="0 0 0 0 0 0 0 0 0 0 0 0 0 0 0 0 0 0 127 0" result="hardAlpha"/>
<feOffset dy="4"/>
<feGaussianBlur stdDeviation="2"/>
<feComposite in2="hardAlpha" operator="out"/>
<feColorMatrix type="matrix" values="0 0 0 0 0 0 0 0 0 0 0 0 0 0 0 0 0 0 0.25 0"/>
<feBlend mode="normal" in2="BackgroundImageFix" result="effect1_dropShadow_101_4"/>
<feBlend mode="normal" in="SourceGraphic" in2="effect1_dropShadow_101_4" result="shape"/>
</filter>
</defs>
</svg>
