<svg width="134" height="46" viewBox="0 0 134 46" fill="none" xmlns="http://www.w3.org/2000/svg">
<g filter="url(#filter0_d_101_4)">
<mask id="path-1-inside-1_101_4" fill="white">
<path d="M6.78516 28.2656H4.14258V26.7188H6.78516C7.54427 26.7188 8.18164 26.4323 8.69727 25.8594C9.21289 25.2865 9.4707 24.5273 9.4707 23.582V0.421875H11.0176V23.582C11.0176 24.9427 10.6094 26.0671 9.79297 26.9551C8.97656 27.8288 7.97396 28.2656 6.78516 28.2656ZM6.78516 31.3594H4.14258V29.8125H6.78516C8.38932 29.8125 9.75 29.2038 10.8672 27.9863C11.9987 26.7689 12.5645 25.3008 12.5645 23.582V0.421875H14.1113V23.582C14.1113 25.7305 13.3952 27.5638 11.9629 29.082C10.5449 30.6003 8.81901 31.3594 6.78516 31.3594ZM6.78516 34.4531H4.14258V32.9062H6.78516C9.2487 32.9062 11.3398 31.9967 13.0586 30.1777C14.7917 28.3587 15.6582 26.1602 15.6582 23.582V0.421875H17.2051V23.582C17.2051 25.5443 16.7396 27.3633 15.8086 29.0391C14.8919 30.7005 13.6315 32.0182 12.0273 32.9922C10.4232 33.9661 8.67578 34.4531 6.78516 34.4531ZM6.78516 37.5469H4.14258V36H6.78516C8.41797 36 9.97201 35.6706 11.4473 35.0117C12.9225 34.3529 14.1901 33.472 15.25 32.3691C16.3242 31.252 17.1764 29.9271 17.8066 28.3945C18.4368 26.862 18.752 25.2578 18.752 23.582V0.421875H20.2988V23.582C20.2988 25.4727 19.9408 27.2773 19.2246 28.9961C18.5228 30.7148 17.5632 32.2044 16.3457 33.4648C15.1426 34.7109 13.7031 35.6992 12.0273 36.4297C10.3659 37.1745 8.61849 37.5469 6.78516 37.5469ZM33.5332 0.421875H35.0801V36H33.5332V0.421875ZM30.4395 0.421875H31.9863V36H30.4395V0.421875ZM27.3457 0.421875H28.8926V36H27.3457V0.421875ZM24.252 0.421875H25.7988V36H24.252V0.421875ZM54.5234 25.5586L55.1465 24.0117H60.4316L61.0547 25.5586H54.5234ZM53.3203 28.6523L53.9219 27.1055H61.6348L62.3008 28.6523H53.3203ZM52.1172 31.7461L52.7188 30.1992H62.8594L63.5039 31.7461H52.1172ZM39.5488 36H37.873L51.9453 0.421875H53.6211L67.6719 36H66.0176L52.7832 2.50586L39.5488 36ZM52.9766 6.17969L53.8574 8.15625L42.8574 36H41.2031L52.9766 6.17969ZM54.6953 10.2617L55.5117 12.3887L46.209 36H44.5332L54.6953 10.2617ZM56.3281 14.5156L57.1445 16.6855L49.5176 36H47.8633L56.3281 14.5156ZM77.6621 36H75.9863L61.9355 0.421875H63.5898L77.6621 36ZM60.2598 0.421875L74.332 36H72.6777L58.6055 0.421875H60.2598ZM56.9297 0.421875L71.002 36H69.3262L55.2754 0.421875H56.9297ZM91.1543 16.7715L90.2305 18.2324L79.0371 0.421875H80.8633L91.1543 16.7715ZM98.7812 28.3945L99.6836 26.9336L105.398 36H103.572L98.7812 28.3945ZM92.9805 13.8926L92.0566 15.332L82.6895 0.421875H84.4941L92.9805 13.8926ZM100.607 25.4941L101.51 24.0332L109.051 36H107.225L100.607 25.4941ZM94.8066 10.9707L93.9043 12.4102L86.3418 0.421875H88.168L94.8066 10.9707ZM102.455 22.5723L103.357 21.1113L112.725 36H110.898L102.455 22.5723ZM96.6328 8.07031L95.7305 9.53125L89.9941 0.421875H91.8203L96.6328 8.07031ZM104.26 19.6719L105.162 18.2109L116.377 36H114.551L104.26 19.6719ZM113.477 0.421875H115.303L92.916 36H91.0898L113.477 0.421875ZM109.846 0.421875H111.65L89.2637 36H87.4375L109.846 0.421875ZM106.172 0.421875H107.998L85.5898 36H83.7637L106.172 0.421875ZM102.52 0.421875H104.346L81.9375 36H80.1113L102.52 0.421875ZM128.236 0.421875H129.783V36H128.236V0.421875ZM125.143 0.421875H126.689V36H125.143V0.421875ZM122.049 0.421875H123.596V36H122.049V0.421875ZM118.955 0.421875H120.502V36H118.955V0.421875Z"/>
</mask>
<path d="M6.78516 28.2656H4.14258V26.7188H6.78516C7.54427 26.7188 8.18164 26.4323 8.69727 25.8594C9.21289 25.2865 9.4707 24.5273 9.4707 23.582V0.421875H11.0176V23.582C11.0176 24.9427 10.6094 26.0671 9.79297 26.9551C8.97656 27.8288 7.97396 28.2656 6.78516 28.2656ZM6.78516 31.3594H4.14258V29.8125H6.78516C8.38932 29.8125 9.75 29.2038 10.8672 27.9863C11.9987 26.7689 12.5645 25.3008 12.5645 23.582V0.421875H14.1113V23.582C14.1113 25.7305 13.3952 27.5638 11.9629 29.082C10.5449 30.6003 8.81901 31.3594 6.78516 31.3594ZM6.78516 34.4531H4.14258V32.9062H6.78516C9.2487 32.9062 11.3398 31.9967 13.0586 30.1777C14.7917 28.3587 15.6582 26.1602 15.6582 23.582V0.421875H17.2051V23.582C17.2051 25.5443 16.7396 27.3633 15.8086 29.0391C14.8919 30.7005 13.6315 32.0182 12.0273 32.9922C10.4232 33.9661 8.67578 34.4531 6.78516 34.4531ZM6.78516 37.5469H4.14258V36H6.78516C8.41797 36 9.97201 35.6706 11.4473 35.0117C12.9225 34.3529 14.1901 33.472 15.25 32.3691C16.3242 31.252 17.1764 29.9271 17.8066 28.3945C18.4368 26.862 18.752 25.2578 18.752 23.582V0.421875H20.2988V23.582C20.2988 25.4727 19.9408 27.2773 19.2246 28.9961C18.5228 30.7148 17.5632 32.2044 16.3457 33.4648C15.1426 34.7109 13.7031 35.6992 12.0273 36.4297C10.3659 37.1745 8.61849 37.5469 6.78516 37.5469ZM33.5332 0.421875H35.0801V36H33.5332V0.421875ZM30.4395 0.421875H31.9863V36H30.4395V0.421875ZM27.3457 0.421875H28.8926V36H27.3457V0.421875ZM24.252 0.421875H25.7988V36H24.252V0.421875ZM54.5234 25.5586L55.1465 24.0117H60.4316L61.0547 25.5586H54.5234ZM53.3203 28.6523L53.9219 27.1055H61.6348L62.3008 28.6523H53.3203ZM52.1172 31.7461L52.7188 30.1992H62.8594L63.5039 31.7461H52.1172ZM39.5488 36H37.873L51.9453 0.421875H53.6211L67.6719 36H66.0176L52.7832 2.50586L39.5488 36ZM52.9766 6.17969L53.8574 8.15625L42.8574 36H41.2031L52.9766 6.17969ZM54.6953 10.2617L55.5117 12.3887L46.209 36H44.5332L54.6953 10.2617ZM56.3281 14.5156L57.1445 16.6855L49.5176 36H47.8633L56.3281 14.5156ZM77.6621 36H75.9863L61.9355 0.421875H63.5898L77.6621 36ZM60.2598 0.421875L74.332 36H72.6777L58.6055 0.421875H60.2598ZM56.9297 0.421875L71.002 36H69.3262L55.2754 0.421875H56.9297ZM91.1543 16.7715L90.2305 18.2324L79.0371 0.421875H80.8633L91.1543 16.7715ZM98.7812 28.3945L99.6836 26.9336L105.398 36H103.572L98.7812 28.3945ZM92.9805 13.8926L92.0566 15.332L82.6895 0.421875H84.4941L92.9805 13.8926ZM100.607 25.4941L101.51 24.0332L109.051 36H107.225L100.607 25.4941ZM94.8066 10.9707L93.9043 12.4102L86.3418 0.421875H88.168L94.8066 10.9707ZM102.455 22.5723L103.357 21.1113L112.725 36H110.898L102.455 22.5723ZM96.6328 8.07031L95.7305 9.53125L89.9941 0.421875H91.8203L96.6328 8.07031ZM104.26 19.6719L105.162 18.2109L116.377 36H114.551L104.26 19.6719ZM113.477 0.421875H115.303L92.916 36H91.0898L113.477 0.421875ZM109.846 0.421875H111.65L89.2637 36H87.4375L109.846 0.421875ZM106.172 0.421875H107.998L85.5898 36H83.7637L106.172 0.421875ZM102.52 0.421875H104.346L81.9375 36H80.1113L102.52 0.421875ZM128.236 0.421875H129.783V36H128.236V0.421875ZM125.143 0.421875H126.689V36H125.143V0.421875ZM122.049 0.421875H123.596V36H122.049V0.421875ZM118.955 0.421875H120.502V36H118.955V0.421875Z" fill="#EDDDD4"/>
<path d="M4.14258 28.2656H3.14258V29.2656H4.14258V28.2656ZM4.14258 26.7188V25.7188H3.14258V26.7188H4.14258ZM9.4707 0.421875V-0.578125H8.4707V0.421875H9.4707ZM11.0176 0.421875H12.0176V-0.578125H11.0176V0.421875ZM9.79297 26.9551L10.5236 27.6378L10.5291 27.6319L9.79297 26.9551ZM4.14258 31.3594H3.14258V32.3594H4.14258V31.3594ZM4.14258 29.8125V28.8125H3.14258V29.8125H4.14258ZM10.8672 27.9863L10.1347 27.3055L10.1304 27.3102L10.8672 27.9863ZM12.5645 0.421875V-0.578125H11.5645V0.421875H12.5645ZM14.1113 0.421875H15.1113V-0.578125H14.1113V0.421875ZM11.9629 29.082L11.2355 28.3958L11.2321 28.3995L11.9629 29.082ZM4.14258 34.4531H3.14258V35.4531H4.14258V34.4531ZM4.14258 32.9062V31.9062H3.14258V32.9062H4.14258ZM13.0586 30.1777L12.3346 29.4879L12.3317 29.4909L13.0586 30.1777ZM15.6582 0.421875V-0.578125H14.6582V0.421875H15.6582ZM17.2051 0.421875H18.2051V-0.578125H17.2051V0.421875ZM15.8086 29.0391L14.9344 28.5534L14.933 28.556L15.8086 29.0391ZM4.14258 37.5469H3.14258V38.5469H4.14258V37.5469ZM4.14258 36V35H3.14258V36H4.14258ZM15.25 32.3691L14.5292 31.676L14.529 31.6762L15.25 32.3691ZM17.8066 28.3945L16.8818 28.0142L17.8066 28.3945ZM18.752 0.421875V-0.578125H17.752V0.421875H18.752ZM20.2988 0.421875H21.2988V-0.578125H20.2988V0.421875ZM19.2246 28.9961L18.3015 28.6115L18.2988 28.6181L19.2246 28.9961ZM16.3457 33.4648L15.6264 32.7701L15.6263 32.7702L16.3457 33.4648ZM12.0273 36.4297L11.6277 35.5129L11.6183 35.5172L12.0273 36.4297ZM6.78516 27.2656H4.14258V29.2656H6.78516V27.2656ZM5.14258 28.2656V26.7188H3.14258V28.2656H5.14258ZM4.14258 27.7188H6.78516V25.7188H4.14258V27.7188ZM6.78516 27.7188C7.8327 27.7188 8.73862 27.3083 9.44056 26.5283L7.95397 25.1904C7.62466 25.5563 7.25585 25.7188 6.78516 25.7188V27.7188ZM9.44056 26.5283C10.1568 25.7325 10.4707 24.7159 10.4707 23.582H8.4707C8.4707 24.3388 8.26897 24.8404 7.95397 25.1904L9.44056 26.5283ZM10.4707 23.582V0.421875H8.4707V23.582H10.4707ZM9.4707 1.42188H11.0176V-0.578125H9.4707V1.42188ZM10.0176 0.421875V23.582H12.0176V0.421875H10.0176ZM10.0176 23.582C10.0176 24.7266 9.68152 25.5988 9.0568 26.2783L10.5291 27.6319C11.5372 26.5354 12.0176 25.1588 12.0176 23.582H10.0176ZM9.06231 26.2723C8.43375 26.945 7.69514 27.2656 6.78516 27.2656V29.2656C8.25278 29.2656 9.51937 28.7125 10.5236 27.6378L9.06231 26.2723ZM6.78516 30.3594H4.14258V32.3594H6.78516V30.3594ZM5.14258 31.3594V29.8125H3.14258V31.3594H5.14258ZM4.14258 30.8125H6.78516V28.8125H4.14258V30.8125ZM6.78516 30.8125C8.67885 30.8125 10.3039 30.0793 11.604 28.6624L10.1304 27.3102C9.19615 28.3283 8.0998 28.8125 6.78516 28.8125V30.8125ZM11.5997 28.6671C12.9095 27.2578 13.5645 25.5438 13.5645 23.582H11.5645C11.5645 25.0577 11.0879 26.28 10.1347 27.3055L11.5997 28.6671ZM13.5645 23.582V0.421875H11.5645V23.582H13.5645ZM12.5645 1.42188H14.1113V-0.578125H12.5645V1.42188ZM13.1113 0.421875V23.582H15.1113V0.421875H13.1113ZM13.1113 23.582C13.1113 25.4836 12.4871 27.0691 11.2355 28.3958L12.6903 29.7683C14.3033 28.0585 15.1113 25.9773 15.1113 23.582H13.1113ZM11.2321 28.3995C9.99862 29.7201 8.53529 30.3594 6.78516 30.3594V32.3594C9.10273 32.3594 11.0912 31.4804 12.6937 29.7646L11.2321 28.3995ZM6.78516 33.4531H4.14258V35.4531H6.78516V33.4531ZM5.14258 34.4531V32.9062H3.14258V34.4531H5.14258ZM4.14258 33.9062H6.78516V31.9062H4.14258V33.9062ZM6.78516 33.9062C9.52864 33.9062 11.8812 32.8799 13.7854 30.8645L12.3317 29.4909C10.7985 31.1136 8.96875 31.9062 6.78516 31.9062V33.9062ZM13.7826 30.8675C15.6979 28.8572 16.6582 26.4095 16.6582 23.582H14.6582C14.6582 25.9108 13.8854 27.8602 12.3346 29.4879L13.7826 30.8675ZM16.6582 23.582V0.421875H14.6582V23.582H16.6582ZM15.6582 1.42188H17.2051V-0.578125H15.6582V1.42188ZM16.2051 0.421875V23.582H18.2051V0.421875H16.2051ZM16.2051 23.582C16.2051 25.3785 15.7809 27.0298 14.9344 28.5534L16.6828 29.5247C17.6983 27.6968 18.2051 25.71 18.2051 23.582H16.2051ZM14.933 28.556C14.0997 30.0663 12.9615 31.2551 11.5084 32.1374L12.5463 33.847C14.3015 32.7813 15.6841 31.3347 16.6842 29.5221L14.933 28.556ZM11.5084 32.1374C10.0619 33.0156 8.4942 33.4531 6.78516 33.4531V35.4531C8.85737 35.4531 10.7845 34.9167 12.5463 33.847L11.5084 32.1374ZM6.78516 36.5469H4.14258V38.5469H6.78516V36.5469ZM5.14258 37.5469V36H3.14258V37.5469H5.14258ZM4.14258 37H6.78516V35H4.14258V37ZM6.78516 37C8.55696 37 10.2501 36.6416 11.855 35.9248L11.0395 34.0986C9.69393 34.6996 8.27898 35 6.78516 35V37ZM11.855 35.9248C13.4412 35.2164 14.8169 34.263 15.971 33.0621L14.529 31.6762C13.5633 32.6811 12.4038 33.4893 11.0395 34.0986L11.855 35.9248ZM15.9708 33.0622C17.138 31.8484 18.0569 30.4154 18.7315 28.7748L16.8818 28.0142C16.296 29.4387 15.5105 30.6555 14.5292 31.676L15.9708 33.0622ZM18.7315 28.7748C19.4119 27.1202 19.752 25.3868 19.752 23.582H17.752C17.752 25.1289 17.4618 26.6037 16.8818 28.0142L18.7315 28.7748ZM19.752 23.582V0.421875H17.752V23.582H19.752ZM18.752 1.42188H20.2988V-0.578125H18.752V1.42188ZM19.2988 0.421875V23.582H21.2988V0.421875H19.2988ZM19.2988 23.582C19.2988 25.3427 18.9661 27.0165 18.3015 28.6115L20.1477 29.3807C20.9154 27.5382 21.2988 25.6026 21.2988 23.582H19.2988ZM18.2988 28.6181C17.6422 30.2262 16.7504 31.6065 15.6264 32.7701L17.065 34.1596C18.3759 32.8023 19.4034 31.2035 20.1504 29.3741L18.2988 28.6181ZM15.6263 32.7702C14.5192 33.9169 13.1902 34.8319 11.6278 35.513L12.4269 37.3464C14.2161 36.5665 15.766 35.505 17.0651 34.1594L15.6263 32.7702ZM11.6183 35.5172C10.0864 36.2039 8.4785 36.5469 6.78516 36.5469V38.5469C8.75848 38.5469 10.6454 38.1451 12.4364 37.3422L11.6183 35.5172ZM33.5332 0.421875V-0.578125H32.5332V0.421875H33.5332ZM35.0801 0.421875H36.0801V-0.578125H35.0801V0.421875ZM35.0801 36V37H36.0801V36H35.0801ZM33.5332 36H32.5332V37H33.5332V36ZM30.4395 0.421875V-0.578125H29.4395V0.421875H30.4395ZM31.9863 0.421875H32.9863V-0.578125H31.9863V0.421875ZM31.9863 36V37H32.9863V36H31.9863ZM30.4395 36H29.4395V37H30.4395V36ZM27.3457 0.421875V-0.578125H26.3457V0.421875H27.3457ZM28.8926 0.421875H29.8926V-0.578125H28.8926V0.421875ZM28.8926 36V37H29.8926V36H28.8926ZM27.3457 36H26.3457V37H27.3457V36ZM24.252 0.421875V-0.578125H23.252V0.421875H24.252ZM25.7988 0.421875H26.7988V-0.578125H25.7988V0.421875ZM25.7988 36V37H26.7988V36H25.7988ZM24.252 36H23.252V37H24.252V36ZM33.5332 1.42188H35.0801V-0.578125H33.5332V1.42188ZM34.0801 0.421875V36H36.0801V0.421875H34.0801ZM35.0801 35H33.5332V37H35.0801V35ZM34.5332 36V0.421875H32.5332V36H34.5332ZM30.4395 1.42188H31.9863V-0.578125H30.4395V1.42188ZM30.9863 0.421875V36H32.9863V0.421875H30.9863ZM31.9863 35H30.4395V37H31.9863V35ZM31.4395 36V0.421875H29.4395V36H31.4395ZM27.3457 1.42188H28.8926V-0.578125H27.3457V1.42188ZM27.8926 0.421875V36H29.8926V0.421875H27.8926ZM28.8926 35H27.3457V37H28.8926V35ZM28.3457 36V0.421875H26.3457V36H28.3457ZM24.252 1.42188H25.7988V-0.578125H24.252V1.42188ZM24.7988 0.421875V36H26.7988V0.421875H24.7988ZM25.7988 35H24.252V37H25.7988V35ZM25.252 36V0.421875H23.252V36H25.252ZM54.5234 25.5586L53.5959 25.185L53.0426 26.5586H54.5234V25.5586ZM55.1465 24.0117V23.0117H54.4712L54.2189 23.6381L55.1465 24.0117ZM60.4316 24.0117L61.3592 23.6381L61.1069 23.0117H60.4316V24.0117ZM61.0547 25.5586V26.5586H62.5355L61.9823 25.185L61.0547 25.5586ZM53.3203 28.6523L52.3883 28.2899L51.8585 29.6523H53.3203V28.6523ZM53.9219 27.1055V26.1055H53.2378L52.9899 26.743L53.9219 27.1055ZM61.6348 27.1055L62.5532 26.71L62.293 26.1055H61.6348V27.1055ZM62.3008 28.6523V29.6523H63.8201L63.2193 28.2569L62.3008 28.6523ZM52.1172 31.7461L51.1852 31.3836L50.6553 32.7461H52.1172V31.7461ZM52.7188 30.1992V29.1992H52.0347L51.7867 29.8368L52.7188 30.1992ZM62.8594 30.1992L63.7825 29.8146L63.526 29.1992H62.8594V30.1992ZM63.5039 31.7461V32.7461H65.0039L64.427 31.3615L63.5039 31.7461ZM39.5488 36V37H40.2289L40.4789 36.3675L39.5488 36ZM37.873 36L36.9431 35.6322L36.4021 37H37.873V36ZM51.9453 0.421875V-0.578125H51.2655L51.0154 0.0540693L51.9453 0.421875ZM53.6211 0.421875L54.5512 0.054555L54.3013 -0.578125H53.6211V0.421875ZM67.6719 36V37H69.142L68.602 35.6327L67.6719 36ZM66.0176 36L65.0875 36.3675L65.3375 37H66.0176V36ZM52.7832 2.50586L53.7132 2.13838L52.7832 -0.215385L51.8532 2.13838L52.7832 2.50586ZM52.9766 6.17969L53.89 5.77263L52.9208 3.59787L52.0464 5.81246L52.9766 6.17969ZM53.8574 8.15625L54.7875 8.52368L54.9418 8.13294L54.7708 7.74919L53.8574 8.15625ZM42.8574 36V37H43.5376L43.7875 36.3674L42.8574 36ZM41.2031 36L40.273 35.6328L39.7332 37H41.2031V36ZM54.6953 10.2617L55.6289 9.90337L54.7085 7.50538L53.7652 9.89448L54.6953 10.2617ZM55.5117 12.3887L56.4421 12.7552L56.5847 12.3934L56.4453 12.0303L55.5117 12.3887ZM46.209 36V37H46.8898L47.1394 36.3666L46.209 36ZM44.5332 36L43.6031 35.6328L43.0633 37H44.5332V36ZM56.3281 14.5156L57.2641 14.1635L56.3496 11.733L55.3977 14.1491L56.3281 14.5156ZM57.1445 16.6855L58.0746 17.0528L58.2162 16.6942L58.0805 16.3334L57.1445 16.6855ZM49.5176 36V37H50.1978L50.4477 36.3673L49.5176 36ZM47.8633 36L46.9329 35.6334L46.3945 37H47.8633V36ZM77.6621 36V37H79.133L78.592 35.6322L77.6621 36ZM75.9863 36L75.0562 36.3673L75.3061 37H75.9863V36ZM61.9355 0.421875V-0.578125H60.4655L61.0055 0.789195L61.9355 0.421875ZM63.5898 0.421875L64.5197 0.0540693L64.2697 -0.578125H63.5898V0.421875ZM60.2598 0.421875L61.1897 0.0540693L60.9396 -0.578125H60.2598V0.421875ZM74.332 36V37H75.8029L75.2619 35.6322L74.332 36ZM72.6777 36L71.7478 36.3678L71.9979 37H72.6777V36ZM58.6055 0.421875V-0.578125H57.1346L57.6756 0.789681L58.6055 0.421875ZM56.9297 0.421875L57.8596 0.0540693L57.6095 -0.578125H56.9297V0.421875ZM71.002 36V37H72.4729L71.9319 35.6322L71.002 36ZM69.3262 36L68.3961 36.3673L68.6459 37H69.3262V36ZM55.2754 0.421875V-0.578125H53.8053L54.3453 0.789195L55.2754 0.421875ZM55.451 25.9322L56.0741 24.3853L54.2189 23.6381L53.5959 25.185L55.451 25.9322ZM55.1465 25.0117H60.4316V23.0117H55.1465V25.0117ZM59.5041 24.3853L60.1271 25.9322L61.9823 25.185L61.3592 23.6381L59.5041 24.3853ZM61.0547 24.5586H54.5234V26.5586H61.0547V24.5586ZM54.2523 29.0148L54.8539 27.4679L52.9899 26.743L52.3883 28.2899L54.2523 29.0148ZM53.9219 28.1055H61.6348V26.1055H53.9219V28.1055ZM60.7163 27.5009L61.3823 29.0478L63.2193 28.2569L62.5532 26.71L60.7163 27.5009ZM62.3008 27.6523H53.3203V29.6523H62.3008V27.6523ZM53.0492 32.1085L53.6508 30.5617L51.7867 29.8368L51.1852 31.3836L53.0492 32.1085ZM52.7188 31.1992H62.8594V29.1992H52.7188V31.1992ZM61.9363 30.5838L62.5808 32.1307L64.427 31.3615L63.7825 29.8146L61.9363 30.5838ZM63.5039 30.7461H52.1172V32.7461H63.5039V30.7461ZM39.5488 35H37.873V37H39.5488V35ZM38.8029 36.3678L52.8752 0.789681L51.0154 0.0540693L36.9431 35.6322L38.8029 36.3678ZM51.9453 1.42188H53.6211V-0.578125H51.9453V1.42188ZM52.691 0.789195L66.7418 36.3673L68.602 35.6327L54.5512 0.054555L52.691 0.789195ZM67.6719 35H66.0176V37H67.6719V35ZM66.9476 35.6325L53.7132 2.13838L51.8532 2.87334L65.0875 36.3675L66.9476 35.6325ZM51.8532 2.13838L38.6188 35.6325L40.4789 36.3675L53.7132 2.87334L51.8532 2.13838ZM52.0632 6.58675L52.944 8.56331L54.7708 7.74919L53.89 5.77263L52.0632 6.58675ZM52.9274 7.78882L41.9274 35.6326L43.7875 36.3674L54.7875 8.52368L52.9274 7.78882ZM42.8574 35H41.2031V37H42.8574V35ZM42.1333 36.3672L53.9067 6.54692L52.0464 5.81246L40.273 35.6328L42.1333 36.3672ZM53.7617 10.6201L54.5781 12.747L56.4453 12.0303L55.6289 9.90337L53.7617 10.6201ZM54.5813 12.0221L45.2786 35.6334L47.1394 36.3666L56.4421 12.7552L54.5813 12.0221ZM46.209 35H44.5332V37H46.209V35ZM45.4633 36.3672L55.6254 10.629L53.7652 9.89448L43.6031 35.6328L45.4633 36.3672ZM55.3922 14.8678L56.2086 17.0377L58.0805 16.3334L57.2641 14.1635L55.3922 14.8678ZM56.2144 16.3183L48.5875 35.6327L50.4477 36.3673L58.0746 17.0528L56.2144 16.3183ZM49.5176 35H47.8633V37H49.5176V35ZM48.7937 36.3666L57.2585 14.8822L55.3977 14.1491L46.9329 35.6334L48.7937 36.3666ZM77.6621 35H75.9863V37H77.6621V35ZM76.9164 35.6327L62.8656 0.054555L61.0055 0.789195L75.0562 36.3673L76.9164 35.6327ZM61.9355 1.42188H63.5898V-0.578125H61.9355V1.42188ZM62.6599 0.789681L76.7322 36.3678L78.592 35.6322L64.5197 0.0540693L62.6599 0.789681ZM59.3299 0.789681L73.4021 36.3678L75.2619 35.6322L61.1897 0.0540693L59.3299 0.789681ZM74.332 35H72.6777V37H74.332V35ZM73.6076 35.6322L59.5354 0.0540693L57.6756 0.789681L71.7478 36.3678L73.6076 35.6322ZM58.6055 1.42188H60.2598V-0.578125H58.6055V1.42188ZM55.9998 0.789681L70.0721 36.3678L71.9319 35.6322L57.8596 0.0540693L55.9998 0.789681ZM71.002 35H69.3262V37H71.002V35ZM70.2563 35.6327L56.2055 0.054555L54.3453 0.789195L68.3961 36.3673L70.2563 35.6327ZM55.2754 1.42188H56.9297V-0.578125H55.2754V1.42188ZM91.1543 16.7715L91.9995 17.3059L92.3367 16.7727L92.0006 16.2388L91.1543 16.7715ZM90.2305 18.2324L89.3838 18.7645L90.2279 20.1076L91.0757 18.7669L90.2305 18.2324ZM79.0371 0.421875V-0.578125H77.2276L78.1904 0.953984L79.0371 0.421875ZM80.8633 0.421875L81.7096 -0.11082L81.4155 -0.578125H80.8633V0.421875ZM98.7812 28.3945L97.9305 27.869L97.6027 28.3997L97.9351 28.9275L98.7812 28.3945ZM99.6836 26.9336L100.53 26.4004L99.675 25.0446L98.8328 26.4081L99.6836 26.9336ZM105.398 36V37H107.211L106.244 35.4668L105.398 36ZM103.572 36L102.726 36.533L103.02 37H103.572V36ZM92.9805 13.8926L93.8221 14.4327L94.1655 13.8976L93.8266 13.3596L92.9805 13.8926ZM92.0566 15.332L91.2099 15.864L92.0476 17.1975L92.8982 15.8722L92.0566 15.332ZM82.6895 0.421875V-0.578125H80.8802L81.8427 0.953847L82.6895 0.421875ZM84.4941 0.421875L85.3402 -0.111153L85.0461 -0.578125H84.4941V0.421875ZM100.607 25.4941L99.7566 24.9686L99.4289 25.4993L99.7613 26.0271L100.607 25.4941ZM101.51 24.0332L102.356 23.5001L101.501 22.144L100.659 23.5077L101.51 24.0332ZM109.051 36V37H110.863L109.897 35.4669L109.051 36ZM107.225 36L106.378 36.533L106.673 37H107.225V36ZM94.8066 10.9707L95.6539 11.5018L95.9875 10.9697L95.653 10.4381L94.8066 10.9707ZM93.9043 12.4102L93.0585 12.9437L93.907 14.2887L94.7516 12.9413L93.9043 12.4102ZM86.3418 0.421875V-0.578125H84.5286L85.496 0.955412L86.3418 0.421875ZM88.168 0.421875L89.0143 -0.110755L88.7202 -0.578125H88.168V0.421875ZM102.455 22.5723L101.604 22.0468L101.277 22.577L101.609 23.1046L102.455 22.5723ZM103.357 21.1113L104.204 20.5788L103.35 19.221L102.507 20.5858L103.357 21.1113ZM112.725 36V37H114.535L113.571 35.4675L112.725 36ZM110.898 36L110.052 36.5323L110.346 37H110.898V36ZM96.6328 8.07031L97.4836 8.59581L97.8112 8.0654L97.4792 7.53775L96.6328 8.07031ZM95.7305 9.53125L94.8843 10.0641L95.7387 11.4209L96.5813 10.0567L95.7305 9.53125ZM89.9941 0.421875V-0.578125H88.1827L89.1479 0.954741L89.9941 0.421875ZM91.8203 0.421875L92.6667 -0.110686L92.3726 -0.578125H91.8203V0.421875ZM104.26 19.6719L103.409 19.1464L103.081 19.6772L103.414 20.2051L104.26 19.6719ZM105.162 18.2109L106.008 17.6776L105.153 16.322L104.311 17.6854L105.162 18.2109ZM116.377 36V37H118.19L117.223 35.4667L116.377 36ZM114.551 36L113.705 36.5332L113.999 37H114.551V36ZM113.477 0.421875V-0.578125H112.924L112.63 -0.110694L113.477 0.421875ZM115.303 0.421875L116.149 0.954444L117.113 -0.578125H115.303V0.421875ZM92.916 36V37H93.4683L93.7624 36.5326L92.916 36ZM91.0898 36L90.2435 35.4674L89.2791 37H91.0898V36ZM109.846 0.421875V-0.578125H109.294L109 -0.11106L109.846 0.421875ZM111.65 0.421875L112.497 0.954444L113.461 -0.578125H111.65V0.421875ZM89.2637 36V37H89.8159L90.1101 36.5326L89.2637 36ZM87.4375 36L86.5913 35.4671L85.6259 37H87.4375V36ZM106.172 0.421875V-0.578125H105.62L105.326 -0.11106L106.172 0.421875ZM107.998 0.421875L108.844 0.95481L109.81 -0.578125H107.998V0.421875ZM85.5898 36V37H86.1418L86.436 36.5329L85.5898 36ZM83.7637 36L82.9175 35.4671L81.952 37H83.7637V36ZM102.52 0.421875V-0.578125H101.968L101.673 -0.11106L102.52 0.421875ZM104.346 0.421875L105.192 0.95481L106.157 -0.578125H104.346V0.421875ZM81.9375 36V37H82.4895L82.7837 36.5329L81.9375 36ZM80.1113 36L79.2652 35.4671L78.2997 37H80.1113V36ZM90.3091 16.237L89.3853 17.698L91.0757 18.7669L91.9995 17.3059L90.3091 16.237ZM91.0771 17.7003L79.8838 -0.110234L78.1904 0.953984L89.3838 18.7645L91.0771 17.7003ZM79.0371 1.42188H80.8633V-0.578125H79.0371V1.42188ZM80.017 0.95457L90.308 17.3042L92.0006 16.2388L81.7096 -0.11082L80.017 0.95457ZM99.632 28.92L100.534 27.4591L98.8328 26.4081L97.9305 27.869L99.632 28.92ZM98.8376 27.4668L104.552 36.5332L106.244 35.4668L100.53 26.4004L98.8376 27.4668ZM105.398 35H103.572V37H105.398V35ZM104.418 35.467L99.6274 27.8615L97.9351 28.9275L102.726 36.533L104.418 35.467ZM92.1389 13.3525L91.2151 14.7919L92.8982 15.8722L93.8221 14.4327L92.1389 13.3525ZM92.9034 14.8001L83.5362 -0.110097L81.8427 0.953847L91.2099 15.864L92.9034 14.8001ZM82.6895 1.42188H84.4941V-0.578125H82.6895V1.42188ZM83.648 0.954903L92.1344 14.4256L93.8266 13.3596L85.3402 -0.111153L83.648 0.954903ZM101.458 26.0196L102.361 24.5587L100.659 23.5077L99.7566 24.9686L101.458 26.0196ZM100.664 24.5663L108.205 36.5331L109.897 35.4669L102.356 23.5001L100.664 24.5663ZM109.051 35H107.225V37H109.051V35ZM108.071 35.467L101.454 24.9612L99.7613 26.0271L106.378 36.533L108.071 35.467ZM93.9594 10.4396L93.057 11.879L94.7516 12.9413L95.6539 11.5018L93.9594 10.4396ZM94.7501 11.8766L87.1876 -0.111662L85.496 0.955412L93.0585 12.9437L94.7501 11.8766ZM86.3418 1.42188H88.168V-0.578125H86.3418V1.42188ZM87.3216 0.954505L93.9603 11.5033L95.653 10.4381L89.0143 -0.110755L87.3216 0.954505ZM103.306 23.0978L104.208 21.6368L102.507 20.5858L101.604 22.0468L103.306 23.0978ZM102.511 21.6438L111.878 36.5325L113.571 35.4675L104.204 20.5788L102.511 21.6438ZM112.725 35H110.898V37H112.725V35ZM111.745 35.4677L103.302 22.04L101.609 23.1046L110.052 36.5323L111.745 35.4677ZM95.782 7.54482L94.8797 9.00576L96.5813 10.0567L97.4836 8.59581L95.782 7.54482ZM96.5767 8.99838L90.8403 -0.110991L89.1479 0.954741L94.8843 10.0641L96.5767 8.99838ZM89.9941 1.42188H91.8203V-0.578125H89.9941V1.42188ZM90.9739 0.954436L95.7864 8.60287L97.4792 7.53775L92.6667 -0.110686L90.9739 0.954436ZM105.111 20.1974L106.013 18.7364L104.311 17.6854L103.409 19.1464L105.111 20.1974ZM104.316 18.7442L115.531 36.5333L117.223 35.4667L106.008 17.6776L104.316 18.7442ZM116.377 35H114.551V37H116.377V35ZM115.397 35.4668L105.106 19.1387L103.414 20.2051L113.705 36.5332L115.397 35.4668ZM113.477 1.42188H115.303V-0.578125H113.477V1.42188ZM114.456 -0.110694L92.0696 35.4674L93.7624 36.5326L116.149 0.954444L114.456 -0.110694ZM92.916 35H91.0898V37H92.916V35ZM91.9362 36.5326L114.323 0.954444L112.63 -0.110694L90.2435 35.4674L91.9362 36.5326ZM109.846 1.42188H111.65V-0.578125H109.846V1.42188ZM110.804 -0.110694L88.4173 35.4674L90.1101 36.5326L112.497 0.954444L110.804 -0.110694ZM89.2637 35H87.4375V37H89.2637V35ZM88.2837 36.5329L110.692 0.95481L109 -0.11106L86.5913 35.4671L88.2837 36.5329ZM106.172 1.42188H107.998V-0.578125H106.172V1.42188ZM107.152 -0.11106L84.7437 35.4671L86.436 36.5329L108.844 0.95481L107.152 -0.11106ZM85.5898 35H83.7637V37H85.5898V35ZM84.6098 36.5329L107.018 0.95481L105.326 -0.11106L82.9175 35.4671L84.6098 36.5329ZM102.52 1.42188H104.346V-0.578125H102.52V1.42188ZM103.5 -0.11106L81.0913 35.4671L82.7837 36.5329L105.192 0.95481L103.5 -0.11106ZM81.9375 35H80.1113V37H81.9375V35ZM80.9575 36.5329L103.366 0.95481L101.673 -0.11106L79.2652 35.4671L80.9575 36.5329ZM128.236 0.421875V-0.578125H127.236V0.421875H128.236ZM129.783 0.421875H130.783V-0.578125H129.783V0.421875ZM129.783 36V37H130.783V36H129.783ZM128.236 36H127.236V37H128.236V36ZM125.143 0.421875V-0.578125H124.143V0.421875H125.143ZM126.689 0.421875H127.689V-0.578125H126.689V0.421875ZM126.689 36V37H127.689V36H126.689ZM125.143 36H124.143V37H125.143V36ZM122.049 0.421875V-0.578125H121.049V0.421875H122.049ZM123.596 0.421875H124.596V-0.578125H123.596V0.421875ZM123.596 36V37H124.596V36H123.596ZM122.049 36H121.049V37H122.049V36ZM118.955 0.421875V-0.578125H117.955V0.421875H118.955ZM120.502 0.421875H121.502V-0.578125H120.502V0.421875ZM120.502 36V37H121.502V36H120.502ZM118.955 36H117.955V37H118.955V36ZM128.236 1.42188H129.783V-0.578125H128.236V1.42188ZM128.783 0.421875V36H130.783V0.421875H128.783ZM129.783 35H128.236V37H129.783V35ZM129.236 36V0.421875H127.236V36H129.236ZM125.143 1.42188H126.689V-0.578125H125.143V1.42188ZM125.689 0.421875V36H127.689V0.421875H125.689ZM126.689 35H125.143V37H126.689V35ZM126.143 36V0.421875H124.143V36H126.143ZM122.049 1.42188H123.596V-0.578125H122.049V1.42188ZM122.596 0.421875V36H124.596V0.421875H122.596ZM123.596 35H122.049V37H123.596V35ZM123.049 36V0.421875H121.049V36H123.049ZM118.955 1.42188H120.502V-0.578125H118.955V1.42188ZM119.502 0.421875V36H121.502V0.421875H119.502ZM120.502 35H118.955V37H120.502V35ZM119.955 36V0.421875H117.955V36H119.955Z" fill="#EDDDD4" mask="url(#path-1-inside-1_101_4)"/>
</g>
<defs>
<filter id="filter0_d_101_4" x="0.142578" y="0.421875" width="133.641" height="45.125" filterUnits="userSpaceOnUse" color-interpolation-filters="sRGB">
<feFlood flood-opacity="0" result="BackgroundImageFix"/>
<feColorMatrix in="SourceAlpha" type="matrix" values="0 0 0 0 0 0 0 0 0 0 0 0 0 0 0 0 0 0 127 0" result="hardAlpha"/>
<feOffset dy="4"/>
<feGaussianBlur stdDeviation="2"/>
<feComposite in2="hardAlpha" operator="out"/>
<feColorMatrix type="matrix" values="0 0 0 0 0 0 0 0 0 0 0 0 0 0 0 0 0 0 0.25 0"/>
<feBlend mode="normal" in2="BackgroundImageFix" result="effect1_dropShadow_101_4"/>
<feBlend mode="normal" in="SourceGraphic" in2="effect1_dropShadow_101_4" result="shape"/>
</filter>
</defs>
</svg>
