<svg width="103" height="44" viewBox="0 0 103 44" fill="none" xmlns="http://www.w3.org/2000/svg">
<g filter="url(#filter0_d_101_2)">
<mask id="path-1-inside-1_101_2" fill="white">
<path d="M29.7891 23.0234L31.3359 20.1016V36H29.7891V23.0234ZM32.8828 17.0938L34.4297 14.1719V36H32.8828V17.0938ZM35.9766 11.25L37.5234 8.30664V36H35.9766V11.25ZM25.5996 22.293L24.7188 20.6816L35.375 0.421875H37.1152L25.5996 22.293ZM23.8164 18.9199L22.9141 17.2871L31.8516 0.421875H33.6133L23.8164 18.9199ZM13.4609 20.2734L15.0078 23.1953V36H13.4609V20.2734ZM10.3672 14.3867L11.9141 17.3086V36H10.3672V14.3867ZM7.27344 8.5L8.82031 11.4434V36H7.27344V8.5ZM19.7773 26.7188H18.0371L5.72656 3.36523V36H4.17969V0.421875H5.91992L19.7773 26.7188ZM23.2793 26.7188H21.5176L7.68164 0.421875H9.44336L23.2793 26.7188ZM39.0703 3.36523L26.7598 26.7188H24.998L11.1836 0.421875H12.9238L25.9004 25.0859L38.8555 0.421875H40.6172V36H39.0703V3.36523ZM53.9805 0.421875H55.5273V36H53.9805V0.421875ZM50.8867 0.421875H52.4336V36H50.8867V0.421875ZM47.793 0.421875H49.3398V36H47.793V0.421875ZM44.6992 0.421875H46.2461V36H44.6992V0.421875ZM74.9707 25.5586L75.5938 24.0117H80.8789L81.502 25.5586H74.9707ZM73.7676 28.6523L74.3691 27.1055H82.082L82.748 28.6523H73.7676ZM72.5645 31.7461L73.166 30.1992H83.3066L83.9512 31.7461H72.5645ZM59.9961 36H58.3203L72.3926 0.421875H74.0684L88.1191 36H86.4648L73.2305 2.50586L59.9961 36ZM73.4238 6.17969L74.3047 8.15625L63.3047 36H61.6504L73.4238 6.17969ZM75.1426 10.2617L75.959 12.3887L66.6562 36H64.9805L75.1426 10.2617ZM76.7754 14.5156L77.5918 16.6855L69.9648 36H68.3105L76.7754 14.5156ZM98.1094 36H96.4336L82.3828 0.421875H84.0371L98.1094 36ZM80.707 0.421875L94.7793 36H93.125L79.0527 0.421875H80.707ZM77.377 0.421875L91.4492 36H89.7734L75.7227 0.421875H77.377Z"/>
</mask>
<path d="M29.7891 23.0234L31.3359 20.1016V36H29.7891V23.0234ZM32.8828 17.0938L34.4297 14.1719V36H32.8828V17.0938ZM35.9766 11.25L37.5234 8.30664V36H35.9766V11.25ZM25.5996 22.293L24.7188 20.6816L35.375 0.421875H37.1152L25.5996 22.293ZM23.8164 18.9199L22.9141 17.2871L31.8516 0.421875H33.6133L23.8164 18.9199ZM13.4609 20.2734L15.0078 23.1953V36H13.4609V20.2734ZM10.3672 14.3867L11.9141 17.3086V36H10.3672V14.3867ZM7.27344 8.5L8.82031 11.4434V36H7.27344V8.5ZM19.7773 26.7188H18.0371L5.72656 3.36523V36H4.17969V0.421875H5.91992L19.7773 26.7188ZM23.2793 26.7188H21.5176L7.68164 0.421875H9.44336L23.2793 26.7188ZM39.0703 3.36523L26.7598 26.7188H24.998L11.1836 0.421875H12.9238L25.9004 25.0859L38.8555 0.421875H40.6172V36H39.0703V3.36523ZM53.9805 0.421875H55.5273V36H53.9805V0.421875ZM50.8867 0.421875H52.4336V36H50.8867V0.421875ZM47.793 0.421875H49.3398V36H47.793V0.421875ZM44.6992 0.421875H46.2461V36H44.6992V0.421875ZM74.9707 25.5586L75.5938 24.0117H80.8789L81.502 25.5586H74.9707ZM73.7676 28.6523L74.3691 27.1055H82.082L82.748 28.6523H73.7676ZM72.5645 31.7461L73.166 30.1992H83.3066L83.9512 31.7461H72.5645ZM59.9961 36H58.3203L72.3926 0.421875H74.0684L88.1191 36H86.4648L73.2305 2.50586L59.9961 36ZM73.4238 6.17969L74.3047 8.15625L63.3047 36H61.6504L73.4238 6.17969ZM75.1426 10.2617L75.959 12.3887L66.6562 36H64.9805L75.1426 10.2617ZM76.7754 14.5156L77.5918 16.6855L69.9648 36H68.3105L76.7754 14.5156ZM98.1094 36H96.4336L82.3828 0.421875H84.0371L98.1094 36ZM80.707 0.421875L94.7793 36H93.125L79.0527 0.421875H80.707ZM77.377 0.421875L91.4492 36H89.7734L75.7227 0.421875H77.377Z" fill="#EDDDD4"/>
<path d="M29.7891 23.0234L28.9053 22.5555L28.7891 22.7751V23.0234H29.7891ZM31.3359 20.1016H32.3359L30.4521 19.6337L31.3359 20.1016ZM31.3359 36V37H32.3359V36H31.3359ZM29.7891 36H28.7891V37H29.7891V36ZM32.8828 17.0938L31.999 16.6259L31.8828 16.8454V17.0938H32.8828ZM34.4297 14.1719H35.4297L33.5459 13.704L34.4297 14.1719ZM34.4297 36V37H35.4297V36H34.4297ZM32.8828 36H31.8828V37H32.8828V36ZM35.9766 11.25L35.0914 10.7848L34.9766 11.0032V11.25H35.9766ZM37.5234 8.30664H38.5234L36.6382 7.84143L37.5234 8.30664ZM37.5234 36V37H38.5234V36H37.5234ZM35.9766 36H34.9766V37H35.9766V36ZM25.5996 22.293L24.7222 22.7726L25.6161 24.408L26.4845 22.7589L25.5996 22.293ZM24.7188 20.6816L23.8337 20.2161L23.5841 20.6908L23.8413 21.1613L24.7188 20.6816ZM35.375 0.421875V-0.578125H34.7711L34.49 -0.0436393L35.375 0.421875ZM37.1152 0.421875L38.0001 0.887765L38.7719 -0.578125H37.1152V0.421875ZM23.8164 18.9199L22.9412 19.4036L23.8351 21.0212L24.7001 19.388L23.8164 18.9199ZM22.9141 17.2871L22.0305 16.8189L21.777 17.2971L22.0388 17.7708L22.9141 17.2871ZM31.8516 0.421875V-0.578125H31.2498L30.968 -0.0463747L31.8516 0.421875ZM33.6133 0.421875L34.497 0.889904L35.2745 -0.578125H33.6133V0.421875ZM13.4609 20.2734L14.3447 19.8055L12.4609 20.2734H13.4609ZM15.0078 23.1953H16.0078V22.9469L15.8916 22.7274L15.0078 23.1953ZM15.0078 36V37H16.0078V36H15.0078ZM13.4609 36H12.4609V37H13.4609V36ZM10.3672 14.3867L11.251 13.9188L9.36719 14.3867H10.3672ZM11.9141 17.3086H12.9141V17.0602L12.7979 16.8407L11.9141 17.3086ZM11.9141 36V37H12.9141V36H11.9141ZM10.3672 36H9.36719V37H10.3672V36ZM7.27344 8.5L8.15864 8.03479L6.27344 8.5H7.27344ZM8.82031 11.4434H9.82031V11.1966L9.70551 10.9781L8.82031 11.4434ZM8.82031 36V37H9.82031V36H8.82031ZM7.27344 36H6.27344V37H7.27344V36ZM19.7773 26.7188V27.7188H21.4347L20.662 26.2526L19.7773 26.7188ZM18.0371 26.7188L17.1525 27.1851L17.4338 27.7188H18.0371V26.7188ZM5.72656 3.36523L6.61118 2.89892L4.72656 3.36523H5.72656ZM5.72656 36V37H6.72656V36H5.72656ZM4.17969 36H3.17969V37H4.17969V36ZM4.17969 0.421875V-0.578125H3.17969V0.421875H4.17969ZM5.91992 0.421875L6.8046 -0.0443182L6.52331 -0.578125H5.91992V0.421875ZM23.2793 26.7188V27.7188H24.9354L24.1643 26.2531L23.2793 26.7188ZM21.5176 26.7188L20.6326 27.1844L20.9138 27.7188H21.5176V26.7188ZM7.68164 0.421875V-0.578125H6.02553L6.79666 0.887502L7.68164 0.421875ZM9.44336 0.421875L10.3283 -0.0437522L10.0472 -0.578125H9.44336V0.421875ZM39.0703 3.36523H40.0703L38.1857 2.89892L39.0703 3.36523ZM26.7598 26.7188V27.7188H27.3631L27.6444 27.1851L26.7598 26.7188ZM24.998 26.7188L24.1128 27.1838L24.3938 27.7188H24.998V26.7188ZM11.1836 0.421875V-0.578125H9.52868L10.2983 0.886936L11.1836 0.421875ZM12.9238 0.421875L13.8088 -0.0437443L13.5277 -0.578125H12.9238V0.421875ZM25.9004 25.0859L25.0154 25.5516L25.9011 27.235L26.7857 25.551L25.9004 25.0859ZM38.8555 0.421875V-0.578125H38.2512L37.9702 -0.0431403L38.8555 0.421875ZM40.6172 0.421875H41.6172V-0.578125H40.6172V0.421875ZM40.6172 36V37H41.6172V36H40.6172ZM39.0703 36H38.0703V37H39.0703V36ZM30.6729 23.4913L32.2197 20.5695L30.4521 19.6337L28.9053 22.5555L30.6729 23.4913ZM30.3359 20.1016V36H32.3359V20.1016H30.3359ZM31.3359 35H29.7891V37H31.3359V35ZM30.7891 36V23.0234H28.7891V36H30.7891ZM33.7666 17.5616L35.3135 14.6398L33.5459 13.704L31.999 16.6259L33.7666 17.5616ZM33.4297 14.1719V36H35.4297V14.1719H33.4297ZM34.4297 35H32.8828V37H34.4297V35ZM33.8828 36V17.0938H31.8828V36H33.8828ZM36.8618 11.7152L38.4086 8.77185L36.6382 7.84143L35.0914 10.7848L36.8618 11.7152ZM36.5234 8.30664V36H38.5234V8.30664H36.5234ZM37.5234 35H35.9766V37H37.5234V35ZM36.9766 36V11.25H34.9766V36H36.9766ZM26.4771 21.8133L25.5962 20.202L23.8413 21.1613L24.7222 22.7726L26.4771 21.8133ZM25.6038 21.1472L36.26 0.887389L34.49 -0.0436393L23.8337 20.2161L25.6038 21.1472ZM35.375 1.42188H37.1152V-0.578125H35.375V1.42188ZM36.2304 -0.0440147L24.7148 21.8271L26.4845 22.7589L38.0001 0.887765L36.2304 -0.0440147ZM24.6916 18.4362L23.7893 16.8034L22.0388 17.7708L22.9412 19.4036L24.6916 18.4362ZM23.7977 17.7554L32.7352 0.890125L30.968 -0.0463747L22.0305 16.8189L23.7977 17.7554ZM31.8516 1.42188H33.6133V-0.578125H31.8516V1.42188ZM32.7296 -0.0461542L22.9327 18.4519L24.7001 19.388L34.497 0.889904L32.7296 -0.0461542ZM12.5771 20.7413L14.124 23.6632L15.8916 22.7274L14.3447 19.8055L12.5771 20.7413ZM14.0078 23.1953V36H16.0078V23.1953H14.0078ZM15.0078 35H13.4609V37H15.0078V35ZM14.4609 36V20.2734H12.4609V36H14.4609ZM9.4834 14.8546L11.0303 17.7765L12.7979 16.8407L11.251 13.9188L9.4834 14.8546ZM10.9141 17.3086V36H12.9141V17.3086H10.9141ZM11.9141 35H10.3672V37H11.9141V35ZM11.3672 36V14.3867H9.36719V36H11.3672ZM6.38824 8.96521L7.93511 11.9086L9.70551 10.9781L8.15864 8.03479L6.38824 8.96521ZM7.82031 11.4434V36H9.82031V11.4434H7.82031ZM8.82031 35H7.27344V37H8.82031V35ZM8.27344 36V8.5H6.27344V36H8.27344ZM19.7773 25.7188H18.0371V27.7188H19.7773V25.7188ZM18.9217 26.2524L6.61118 2.89892L4.84194 3.83155L17.1525 27.1851L18.9217 26.2524ZM4.72656 3.36523V36H6.72656V3.36523H4.72656ZM5.72656 35H4.17969V37H5.72656V35ZM5.17969 36V0.421875H3.17969V36H5.17969ZM4.17969 1.42188H5.91992V-0.578125H4.17969V1.42188ZM5.03524 0.888068L18.8927 27.1849L20.662 26.2526L6.8046 -0.0443182L5.03524 0.888068ZM23.2793 25.7188H21.5176V27.7188H23.2793V25.7188ZM22.4026 26.2531L8.56662 -0.0437522L6.79666 0.887502L20.6326 27.1844L22.4026 26.2531ZM7.68164 1.42188H9.44336V-0.578125H7.68164V1.42188ZM8.55838 0.887502L22.3943 27.1844L24.1643 26.2531L10.3283 -0.0437522L8.55838 0.887502ZM38.1857 2.89892L25.8751 26.2524L27.6444 27.1851L39.9549 3.83155L38.1857 2.89892ZM26.7598 25.7188H24.998V27.7188H26.7598V25.7188ZM25.8833 26.2537L12.0689 -0.0431857L10.2983 0.886936L24.1128 27.1838L25.8833 26.2537ZM11.1836 1.42188H12.9238V-0.578125H11.1836V1.42188ZM12.0388 0.887494L25.0154 25.5516L26.7854 24.6203L13.8088 -0.0437443L12.0388 0.887494ZM26.7857 25.551L39.7408 0.88689L37.9702 -0.0431403L25.0151 24.6209L26.7857 25.551ZM38.8555 1.42188H40.6172V-0.578125H38.8555V1.42188ZM39.6172 0.421875V36H41.6172V0.421875H39.6172ZM40.6172 35H39.0703V37H40.6172V35ZM40.0703 36V3.36523H38.0703V36H40.0703ZM53.9805 0.421875V-0.578125H52.9805V0.421875H53.9805ZM55.5273 0.421875H56.5273V-0.578125H55.5273V0.421875ZM55.5273 36V37H56.5273V36H55.5273ZM53.9805 36H52.9805V37H53.9805V36ZM50.8867 0.421875V-0.578125H49.8867V0.421875H50.8867ZM52.4336 0.421875H53.4336V-0.578125H52.4336V0.421875ZM52.4336 36V37H53.4336V36H52.4336ZM50.8867 36H49.8867V37H50.8867V36ZM47.793 0.421875V-0.578125H46.793V0.421875H47.793ZM49.3398 0.421875H50.3398V-0.578125H49.3398V0.421875ZM49.3398 36V37H50.3398V36H49.3398ZM47.793 36H46.793V37H47.793V36ZM44.6992 0.421875V-0.578125H43.6992V0.421875H44.6992ZM46.2461 0.421875H47.2461V-0.578125H46.2461V0.421875ZM46.2461 36V37H47.2461V36H46.2461ZM44.6992 36H43.6992V37H44.6992V36ZM53.9805 1.42188H55.5273V-0.578125H53.9805V1.42188ZM54.5273 0.421875V36H56.5273V0.421875H54.5273ZM55.5273 35H53.9805V37H55.5273V35ZM54.9805 36V0.421875H52.9805V36H54.9805ZM50.8867 1.42188H52.4336V-0.578125H50.8867V1.42188ZM51.4336 0.421875V36H53.4336V0.421875H51.4336ZM52.4336 35H50.8867V37H52.4336V35ZM51.8867 36V0.421875H49.8867V36H51.8867ZM47.793 1.42188H49.3398V-0.578125H47.793V1.42188ZM48.3398 0.421875V36H50.3398V0.421875H48.3398ZM49.3398 35H47.793V37H49.3398V35ZM48.793 36V0.421875H46.793V36H48.793ZM44.6992 1.42188H46.2461V-0.578125H44.6992V1.42188ZM45.2461 0.421875V36H47.2461V0.421875H45.2461ZM46.2461 35H44.6992V37H46.2461V35ZM45.6992 36V0.421875H43.6992V36H45.6992ZM74.9707 25.5586L74.0431 25.185L73.4899 26.5586H74.9707V25.5586ZM75.5938 24.0117V23.0117H74.9185L74.6662 23.6381L75.5938 24.0117ZM80.8789 24.0117L81.8065 23.6381L81.5542 23.0117H80.8789V24.0117ZM81.502 25.5586V26.5586H82.9828L82.4295 25.185L81.502 25.5586ZM73.7676 28.6523L72.8356 28.2899L72.3057 29.6523H73.7676V28.6523ZM74.3691 27.1055V26.1055H73.6851L73.4371 26.743L74.3691 27.1055ZM82.082 27.1055L83.0005 26.71L82.7402 26.1055H82.082V27.1055ZM82.748 28.6523V29.6523H84.2674L83.6665 28.2569L82.748 28.6523ZM72.5645 31.7461L71.6324 31.3836L71.1026 32.7461H72.5645V31.7461ZM73.166 30.1992V29.1992H72.4819L72.234 29.8368L73.166 30.1992ZM83.3066 30.1992L84.2297 29.8146L83.9733 29.1992H83.3066V30.1992ZM83.9512 31.7461V32.7461H85.4512L84.8742 31.3615L83.9512 31.7461ZM59.9961 36V37H60.6762L60.9261 36.3675L59.9961 36ZM58.3203 36L57.3904 35.6322L56.8494 37H58.3203V36ZM72.3926 0.421875V-0.578125H71.7127L71.4627 0.0540693L72.3926 0.421875ZM74.0684 0.421875L74.9985 0.054555L74.7486 -0.578125H74.0684V0.421875ZM88.1191 36V37H89.5892L89.0492 35.6327L88.1191 36ZM86.4648 36L85.5348 36.3675L85.7847 37H86.4648V36ZM73.2305 2.50586L74.1605 2.13838L73.2305 -0.215385L72.3004 2.13838L73.2305 2.50586ZM73.4238 6.17969L74.3372 5.77263L73.368 3.59787L72.4937 5.81246L73.4238 6.17969ZM74.3047 8.15625L75.2347 8.52368L75.3891 8.13294L75.2181 7.74919L74.3047 8.15625ZM63.3047 36V37H63.9848L64.2347 36.3674L63.3047 36ZM61.6504 36L60.7203 35.6328L60.1805 37H61.6504V36ZM75.1426 10.2617L76.0762 9.90337L75.1557 7.50538L74.2125 9.89448L75.1426 10.2617ZM75.959 12.3887L76.8894 12.7552L77.0319 12.3934L76.8926 12.0303L75.959 12.3887ZM66.6562 36V37H67.3371L67.5866 36.3666L66.6562 36ZM64.9805 36L64.0503 35.6328L63.5105 37H64.9805V36ZM76.7754 14.5156L77.7113 14.1635L76.7969 11.733L75.845 14.1491L76.7754 14.5156ZM77.5918 16.6855L78.5219 17.0528L78.6635 16.6942L78.5277 16.3334L77.5918 16.6855ZM69.9648 36V37H70.6451L70.895 36.3673L69.9648 36ZM68.3105 36L67.3802 35.6334L66.8417 37H68.3105V36ZM98.1094 36V37H99.5803L99.0393 35.6322L98.1094 36ZM96.4336 36L95.5035 36.3673L95.7534 37H96.4336V36ZM82.3828 0.421875V-0.578125H80.9127L81.4527 0.789195L82.3828 0.421875ZM84.0371 0.421875L84.967 0.0540693L84.717 -0.578125H84.0371V0.421875ZM80.707 0.421875L81.6369 0.0540693L81.3869 -0.578125H80.707V0.421875ZM94.7793 36V37H96.2502L95.7092 35.6322L94.7793 36ZM93.125 36L92.1951 36.3678L92.4452 37H93.125V36ZM79.0527 0.421875V-0.578125H77.5818L78.1228 0.789681L79.0527 0.421875ZM77.377 0.421875L78.3069 0.0540693L78.0568 -0.578125H77.377V0.421875ZM91.4492 36V37H92.9201L92.3791 35.6322L91.4492 36ZM89.7734 36L88.8433 36.3673L89.0932 37H89.7734V36ZM75.7227 0.421875V-0.578125H74.2526L74.7926 0.789195L75.7227 0.421875ZM75.8983 25.9322L76.5213 24.3853L74.6662 23.6381L74.0431 25.185L75.8983 25.9322ZM75.5938 25.0117H80.8789V23.0117H75.5938V25.0117ZM79.9513 24.3853L80.5744 25.9322L82.4295 25.185L81.8065 23.6381L79.9513 24.3853ZM81.502 24.5586H74.9707V26.5586H81.502V24.5586ZM74.6996 29.0148L75.3011 27.4679L73.4371 26.743L72.8356 28.2899L74.6996 29.0148ZM74.3691 28.1055H82.082V26.1055H74.3691V28.1055ZM81.1635 27.5009L81.8296 29.0478L83.6665 28.2569L83.0005 26.71L81.1635 27.5009ZM82.748 27.6523H73.7676V29.6523H82.748V27.6523ZM73.4965 32.1085L74.098 30.5617L72.234 29.8368L71.6324 31.3836L73.4965 32.1085ZM73.166 31.1992H83.3066V29.1992H73.166V31.1992ZM82.3836 30.5838L83.0281 32.1307L84.8742 31.3615L84.2297 29.8146L82.3836 30.5838ZM83.9512 30.7461H72.5645V32.7461H83.9512V30.7461ZM59.9961 35H58.3203V37H59.9961V35ZM59.2502 36.3678L73.3225 0.789681L71.4627 0.0540693L57.3904 35.6322L59.2502 36.3678ZM72.3926 1.42188H74.0684V-0.578125H72.3926V1.42188ZM73.1383 0.789195L87.189 36.3673L89.0492 35.6327L74.9985 0.054555L73.1383 0.789195ZM88.1191 35H86.4648V37H88.1191V35ZM87.3949 35.6325L74.1605 2.13838L72.3004 2.87334L85.5348 36.3675L87.3949 35.6325ZM72.3004 2.13838L59.0661 35.6325L60.9261 36.3675L74.1605 2.87334L72.3004 2.13838ZM72.5104 6.58675L73.3913 8.56331L75.2181 7.74919L74.3372 5.77263L72.5104 6.58675ZM73.3746 7.78882L62.3746 35.6326L64.2347 36.3674L75.2347 8.52368L73.3746 7.78882ZM63.3047 35H61.6504V37H63.3047V35ZM62.5805 36.3672L74.354 6.54692L72.4937 5.81246L60.7203 35.6328L62.5805 36.3672ZM74.209 10.6201L75.0254 12.747L76.8926 12.0303L76.0762 9.90337L74.209 10.6201ZM75.0286 12.0221L65.7259 35.6334L67.5866 36.3666L76.8894 12.7552L75.0286 12.0221ZM66.6562 35H64.9805V37H66.6562V35ZM65.9106 36.3672L76.0727 10.629L74.2125 9.89448L64.0503 35.6328L65.9106 36.3672ZM75.8394 14.8678L76.6558 17.0377L78.5277 16.3334L77.7113 14.1635L75.8394 14.8678ZM76.6617 16.3183L69.0347 35.6327L70.895 36.3673L78.5219 17.0528L76.6617 16.3183ZM69.9648 35H68.3105V37H69.9648V35ZM69.2409 36.3666L77.7058 14.8822L75.845 14.1491L67.3802 35.6334L69.2409 36.3666ZM98.1094 35H96.4336V37H98.1094V35ZM97.3637 35.6327L83.3129 0.054555L81.4527 0.789195L95.5035 36.3673L97.3637 35.6327ZM82.3828 1.42188H84.0371V-0.578125H82.3828V1.42188ZM83.1072 0.789681L97.1795 36.3678L99.0393 35.6322L84.967 0.0540693L83.1072 0.789681ZM79.7771 0.789681L93.8494 36.3678L95.7092 35.6322L81.6369 0.0540693L79.7771 0.789681ZM94.7793 35H93.125V37H94.7793V35ZM94.0549 35.6322L79.9826 0.0540693L78.1228 0.789681L92.1951 36.3678L94.0549 35.6322ZM79.0527 1.42188H80.707V-0.578125H79.0527V1.42188ZM76.4471 0.789681L90.5193 36.3678L92.3791 35.6322L78.3069 0.0540693L76.4471 0.789681ZM91.4492 35H89.7734V37H91.4492V35ZM90.7035 35.6327L76.6528 0.054555L74.7926 0.789195L88.8433 36.3673L90.7035 35.6327ZM75.7227 1.42188H77.377V-0.578125H75.7227V1.42188Z" fill="#EDDDD4" mask="url(#path-1-inside-1_101_2)"/>
</g>
<defs>
<filter id="filter0_d_101_2" x="0.179688" y="0.421875" width="101.93" height="43.5781" filterUnits="userSpaceOnUse" color-interpolation-filters="sRGB">
<feFlood flood-opacity="0" result="BackgroundImageFix"/>
<feColorMatrix in="SourceAlpha" type="matrix" values="0 0 0 0 0 0 0 0 0 0 0 0 0 0 0 0 0 0 127 0" result="hardAlpha"/>
<feOffset dy="4"/>
<feGaussianBlur stdDeviation="2"/>
<feComposite in2="hardAlpha" operator="out"/>
<feColorMatrix type="matrix" values="0 0 0 0 0 0 0 0 0 0 0 0 0 0 0 0 0 0 0.25 0"/>
<feBlend mode="normal" in2="BackgroundImageFix" result="effect1_dropShadow_101_2"/>
<feBlend mode="normal" in="SourceGraphic" in2="effect1_dropShadow_101_2" result="shape"/>
</filter>
</defs>
</svg>
